<?xml version="1.0" encoding="utf-8" ?>
<svg baseProfile="full" height="300mm" version="1.1" viewBox="0,0,200,300" width="200mm" xmlns="http://www.w3.org/2000/svg" xmlns:ev="http://www.w3.org/2001/xml-events" xmlns:xlink="http://www.w3.org/1999/xlink"><defs /><rect fill="#222222" height="300" width="200" x="0" y="0" /><text fill="#FFFFFF" style="font-size:12px; font-family:Arial; font-weight:bold;" x="10" y="20">Over 3km Runs</text><text fill="#FFFFFF" style="font-size:4px; font-family:Arial" x="10" y="280">ATHLETE</text><text fill="#FFFFFF" style="font-size:9px; font-family:Arial" x="10" y="290">Nikola</text><text fill="#FFFFFF" style="font-size:4px; font-family:Arial" x="65" y="280">SPECIAL TRACKS</text><rect fill="yellow" height="2.6" width="2.6" x="65" y="283" /><text fill="#FFFFFF" style="font-size:3px; font-family:Arial" x="70" y="285.5">Over 20.0 km</text><rect fill="red" height="2.6" width="2.6" x="65" y="287" /><text fill="#FFFFFF" style="font-size:3px; font-family:Arial" x="70" y="289.5">Over 40.0 km</text><text fill="#FFFFFF" style="font-size:4px; font-family:Arial" x="120" y="280">STATISTICS</text><text fill="#FFFFFF" style="font-size:3px; font-family:Arial" x="120" y="285">Number: 4</text><text fill="#FFFFFF" style="font-size:3px; font-family:Arial" x="120" y="290">Weekly: 2.0</text><text fill="#FFFFFF" style="font-size:3px; font-family:Arial" x="141" y="285">Total: 8.1 km</text><text fill="#FFFFFF" style="font-size:3px; font-family:Arial" x="141" y="290">Avg: 2.0 km</text><text fill="#FFFFFF" style="font-size:3px; font-family:Arial" x="167" y="285">Min: 1.0 km</text><text fill="#FFFFFF" style="font-size:3px; font-family:Arial" x="167" y="290">Max: 3.6 km</text><polyline fill="none" points="75.33077057031915,115.5 76.38920548092574,113.9383685500361 76.74201711732894,112.68906154495198 76.6538142086938,112.06440742692212 77.35943748196587,110.81509796017781 77.44764039106667,108.52469301049132 78.4178723921068,103.94386656658025 78.4178723921068,102.27810602687532 78.1532636648044,102.38221614592476 78.0650607557036,102.27810602687532 77.71224911883473,102.27810602687532 77.53584330016747,101.44522466312628 76.74201711732894,100.82056316186208 75.33077057031915,99.05068668042077 74.53694438748062,98.32191305432934 73.47850947687402,97.59313887020107 71.80265420256183,96.76025340426713 70.30320474598557,95.61503469815943 68.53914656210691,94.8862584400922 68.45094365254045,94.8862584400922 68.71555238030851,96.1355888263206 68.71555238030851,97.4890282266424 68.53914656210691,98.32191305432934 68.09813201613724,98.73835519474233 65.18743601255119,98.9465761964093 62.5413487367332,98.32191305432934 61.74752255389467,98.73835519474233 61.30650800745934,98.63424467667937 59.98346436955035,99.15479715261608 59.27784109627828,99.05068668042077 58.925029459409416,98.84246570133837 57.42558000283316,97.17669622809626 56.63175381999463,97.17669622809626 55.92613054672256,96.96847483911552 51.956999632529914,97.28080690570641 51.956999632529914,97.80136012239382 52.133405450731516,98.63424467667937 51.868796723429114,98.84246570133837 51.956999632529914,98.73835519474233 51.956999632529914,99.25890761351911 51.868796723429114,99.25890761351911 51.78059381432831,98.84246570133837 51.868796723429114,98.63424467667937 51.956999632529914,98.63424467667937 50.45755017641932,97.4890282266424 49.31091235624626,97.38491757202428 48.428883264772594,97.59313887020107 46.929433808196336,97.17669622809626 46.841230899095535,97.28080690570641 45.87099889758974,97.59313887020107 42.34288252983242,97.59313887020107 41.813665074296296,97.80136012239382 41.37265052879229,98.11369191587437 40.843433073256165,98.21780249063158 40.4906214363873,98.63424467667937 39.34398361714557,99.25890761351911 38.37375161610544,100.5082322571543 37.227113796398044,101.23700420802925 35.639461430720985,101.44522466312628 35.37485270295292,101.23700420802925 34.933838156517595,98.32191305432934 35.02204106608406,97.38491757202428 35.639461430720985,96.1355888263206 37.403519614599645,93.32459314959124 37.227113796398044,92.69992631569039 37.315316705498844,91.65881401393563 37.13891088729724,91.34648010140518 37.315316705498844,90.82592335203663 36.96250506862998,89.47247447125847 36.87430215952918,87.390241663903 36.609693431761116,86.66145910433261 36.96250506862998,85.93267598655075 36.69789634086192,84.68333219946362 37.05070797773078,84.1627718040254 38.37375161610544,84.1627718040254 38.37375161610544,84.26688390580239 38.285548706538975,83.95454756601248 37.57992543326691,83.85043543006759 37.491722523700446,83.64221112377709 37.13891088729724,83.53809895325685 36.433287613559514,82.91342569253175 35.727664339821786,82.08052737324033 34.845635247882456,81.66407794028055 33.16977997357026,79.89416581531987 33.081577064003795,79.37360279867426 32.46415669936687,78.33247591118561 32.37595379073173,77.18723501864588 32.111345062498,76.56255758693442 31.93493924383074,75.10497531777946 31.670330516528338,74.37618334556464 31.582127607427537,73.23093768960098 31.93493924383074,72.29391749098431 32.199547971598804,70.315760706726 32.64056251803413,69.06639640766662 33.2579828822054,67.81703046761686 33.43438870087266,66.98411892930744 34.31641779281199,65.2141794883646 34.40462070191279,64.69360843754839 34.845635247882456,63.75657982879784 35.815867248922586,62.81955029675737 36.69789634086192,62.5072069138987 36.78609924996272,61.361946967139374 37.491722523700446,58.759078323317226 37.227113796398044,57.92615885310806 37.227113796398044,57.3014687714749 37.93273707013577,55.3232808066532 38.37375161610544,52.61628008267144 38.285548706538975,50.84631390502909 38.72656325250864,49.70103991730139 38.90296907071024,48.55576455075061 39.25578070804477,47.30637166858651 39.34398361714557,46.5775583962095 39.52038943581283,46.36932593001984 40.3142156181857,46.16109341831179 42.16647671163082,46.265209680073895 43.401317440439016,46.16109341831179 44.81256398744881,45.744628258398734 44.72436107834801,45.744628258398734 45.51818726118654,45.64051193965133 45.78279598848894,45.22404655144783 46.047404715791345,43.97464929294074 47.01763671729714,43.870532780420035 48.16427453700453,43.97464929294074 50.63395599462092,43.66229972190922 51.42778217745945,44.495231683482416 51.956999632529914,44.80758098087972 53.015434542670846,44.39111522817984 53.721057816874236,43.66229972190922 55.22050727298483,43.55818317527883 55.92613054672256,43.03760027192766 56.367145092226565,43.03760027192766 56.10253636492416,42.62113374390174 56.01433345582336,42.10055032768287 55.74972472852096,41.4758498519077 55.74972472852096,40.95526580879232 55.04410145431757,40.12233074690448 54.95589854521677,38.97704384586541 54.77949272701517,38.872926786600146 54.603086908347905,38.144107051834 54.16207236237824,37.83175556565402 53.80926072597504,37.102935033035465 54.07386945327744,36.478231274697464 54.603086908347905,35.9576444964041 55.74972472852096,35.7494097048766 56.63175381999463,36.26999659760622 56.71995672909543,36.68646590667777 56.63175381999463,36.06176187470555 56.54355091089383,36.165879242063966 56.71995672909543,36.26999659760622 56.71995672909543,36.58234859642107 56.71995672909543,37.102935033035465 56.80815963866189,36.478231274697464 57.249174184631556,36.89470049284864 57.42558000283316,36.89470049284864 57.33737709373236,37.31116952793673 57.69018873060122,37.93587273918092 57.42558000283316,37.31116952793673 57.77839164016768,37.72763838095125 57.77839164016768,37.20705228630686 58.30760909430683,37.20705228630686 58.39581200387329,37.31116952793673 57.77839164016768,37.415286758507136 57.42558000283316,36.9988177685882 57.42558000283316,36.89470049284864 57.51378291193396,36.89470049284864 57.33737709373236,36.478231274697464 57.33737709373236,36.58234859642107 56.89636254776269,36.165879242063966 57.07276836596429,36.478231274697464 57.07276836596429,36.9988177685882 57.249174184631556,35.645292292232625 56.89636254776269,35.7494097048766 57.33737709373236,35.9576444964041 57.42558000283316,36.58234859642107 56.89636254776269,35.8535271063447 57.42558000283316,36.374113941856194 56.71995672909543,36.06176187470555 56.80815963866189,35.9576444964041 56.63175381999463,35.7494097048766 56.63175381999463,35.9576444964041 56.45534800179303,35.9576444964041 56.63175381999463,36.165879242063966 56.54355091089383,35.7494097048766 56.71995672909543,35.43705743266037 56.80815963866189,35.645292292232625 56.71995672909543,35.43705743266037 56.71995672909543,35.645292292232625 56.89636254776269,35.332939985673875 56.54355091089383,35.332939985673875 56.98456545686349,35.02058757649502 56.278942183125764,35.02058757649502 57.07276836596429,34.604117538256105 56.01433345582336,35.12470505764941 55.92613054672256,34.5 56.19073927402496,34.604117538256105 56.19073927402496,34.81235258030938 56.01433345582336,35.22882252733689 56.01433345582336,34.70823506475426 56.19073927402496,34.81235258030938 56.10253636492416,35.12470505764941 56.10253636492416,34.91647008404834" stroke="#4DD2FF" stroke-linecap="round" stroke-linejoin="round" stroke-width="0.5"><title>2025-01-19 3.6km</title><desc>13437717697</desc></polyline><polyline fill="none" points="113.38387096766382,77.0701206496451 114.7276497692801,77.68673681921791 115.54884792631492,78.21526458923472 118.16175115248188,80.5936352640856 118.01244239602238,80.50554758682847 119.95345622114837,82.5315617355518 121.4465437787585,83.58861057355534 122.19308755779639,83.85287256643642 122.79032258084044,83.67669791402295 123.38755760341883,83.0600863279542 124.58202764950693,81.47451151063433 125.62718893960118,79.97702131897677 128.46405529929325,77.15820870263269 128.76267281128094,76.27732773812022 128.68801843328401,77.0701206496451 129.8824884793721,75.74879869725555 131.15161290299147,76.27732773812022 132.04746543755755,75.57262227294268 132.19677419308573,74.51556292001624 132.04746543755755,74.51556292001624 132.04746543755755,74.69173957518069 133.09262672811747,76.18923958856612 134.21244239620864,76.54159212857485 134.28709677420557,75.9249750826275 133.1672811061144,77.42247280443553 133.2419354841113,77.51056081918068 136.0041474653408,78.30335251719225 140.03548387112096,79.7127580549568 136.89999999990687,77.59864882408874 130.18110599089414,73.81085591425654 127.04562211968005,72.1371743059135 120.10276497667655,68.96597856731387 116.59400921640918,67.82082148344489 110.17373271891847,67.2922868958558 106.06774193514138,67.46846513048513 105.32119815656915,67.20419776433846 104.7239631335251,66.9399303116952 104.5,66.49948436475825 104.5,66.23521668091416 104.94792626751587,66.14712743362179 105.6944700460881,66.23521668091416 107.78479262674227,67.3803760180599 110.17373271891847,67.90891054755775 114.35437788022682,67.73273240955314 117.34055299544707,68.34935572440736 124.95529953902587,69.2302453556913 129.8824884793721,69.40642316604499 133.4658986176364,69.2302453556913 135.63087557582185,69.49451205687365 138.76635944703594,70.37540043622721 142.42442396329716,70.55157799652079 146.15714285708964,71.25628785241861 156.1608294933103,71.69673119962681 163.17834101384506,71.60864254960325 166.3138248845935,71.87290847080294 169.22534562228248,71.69673119962681 171.76359447045252,71.78481984004611 174.525806451682,72.40144005400361 177.1387096773833,73.54659062821884 180.9460829491727,75.74879869725555 183.78294930886477,77.77482480497565 184.00691244238988,77.51056081918068 184.23087557591498,75.57262227294268 184.529493087437,74.69173957518069 184.90276497695595,74.25129786523758 185.5,74.42747457785299" stroke="#4DD2FF" stroke-linecap="round" stroke-linejoin="round" stroke-width="0.5"><title>2025-01-17 2.0km</title><desc>13437717788</desc></polyline><polyline fill="none" points="95.5,188.36616943008266 87.69674355490133,187.84744396596216 83.5203527812846,188.10680672631133 79.56377204926684,188.88489466742612 77.25576662132517,189.92234446154907 75.05766621418297,191.21915542823263 70.99118046136573,192.2566031817114 66.37516960641369,192.64564585499465 60.5502035273239,192.51596497790888 57.912483039312065,195.1095798240276 57.69267299864441,199.12967163021676 57.582767978310585,200.5561525451485 56.81343283550814,202.76071058551315 56.263907733839005,205.87302084441762 54.395522388163954,207.29949365137145 51.098371777217835,206.78077646542806 52.087516960222274,206.78077646542806 55.274762550834566,207.94788981461897 55.274762550834566,208.20724818110466 56.04409769363701,211.44922297401354 56.593622794840485,216.5066859611543 58.13229307997972,220.91573866771068 58.4620081409812,230.1228253110312 61.09972862992436,231.67894557246473 65.71573948441073,231.41959233756643 69.12279511522502,233.3647402189672 69.01289009489119,241.40465096733533 69.56241519656032,246.33231127192266 70.33175033936277,255.40952668280806 70.22184531856328,259.6887612910941 71.98032564437017,260.85582259623334 72.85956580704078,261.8932094599586 72.090230664704,262.15255603415426 71.21099050203338,262.0228827538667 67.2544097690843,261.244842776563 62.088873812928796,259.6887612910941 54.83514246949926,257.09528761322144 44.28426051558927,252.81604365142994 40.65739484410733,251.00060215673875 37.360244234092534,248.7961337500019 34.28290366334841,247.2400359378662 29.66689280886203,245.42458591144532 24.611261872109026,243.8684836779721 19.44572591641918,242.83108105498832 16.80800542747602,242.83108105498832 15.4891451834701,243.09043179568835 14.829715060535818,243.47945780074224 14.5,243.99815894197673 14.5,245.0355605444638 14.829715060535818,247.2400359378662" stroke="#4DD2FF" stroke-linecap="round" stroke-linejoin="round" stroke-width="0.5"><title>2025-01-08 1.4km</title><desc>13437717780</desc></polyline><polyline fill="none" points="150.75536953937262,184.5 151.5006691920571,186.06339877308346 151.5834802640602,186.94280938175507 151.33504704665393,187.52908263984136 150.42412524903193,188.31077971938066 150.09288095869124,188.99476410314674 149.84444774175063,190.55815501516918 149.92725881421939,192.12154319282854 151.33504704665393,196.4208465826814 151.83191348193213,201.5995254846639 153.15689064189792,208.14611436950509 153.9850013665855,211.37053604907123 156.13808925217018,217.81934451748384 157.13182212226093,221.33685680211056 157.62868855753914,223.97498193237698 157.8771217749454,227.29705435608048 158.53961035469547,233.64804080722388 159.11928786244243,237.06778405467048 160.2786428774707,240.1943950051791 161.10675360262394,243.5164071592153 162.2661086176522,249.76957302220399 163.0114082703367,254.75253325689118 164.75044079264626,261.689549300645 166.40666224295273,265.5 166.24104009801522,265.5 161.85205325530842,264.22985157126095 150.58974739396945,259.05153545719804 144.95859446376562,256.80433234013617 142.63988443324342,256.02269514946966 139.9899301128462,255.43646680790698 138.99619724275544,255.53417155804345 137.67122008278966,255.82728574471548 134.6900214725174,256.9020369410282 133.7790996748954,256.9020369410282 132.45412251492962,256.51121847354807 130.3010346298106,255.43646680790698 127.89951352728531,253.6777794768568 125.74642564170063,251.43056285299826 123.5933377565816,248.5971077544964 124.00739311892539,249.1833405806683" stroke="#4DD2FF" stroke-linecap="round" stroke-linejoin="round" stroke-width="0.5"><title>2025-01-07 1.0km</title><desc>13437717841</desc></polyline></svg>