<?xml version="1.0" encoding="utf-8" ?>
<svg baseProfile="full" height="300mm" version="1.1" viewBox="0,0,200,300" width="200mm" xmlns="http://www.w3.org/2000/svg" xmlns:ev="http://www.w3.org/2001/xml-events" xmlns:xlink="http://www.w3.org/1999/xlink"><defs /><rect fill="#222222" height="300" width="200" x="0" y="0" /><text fill="#FFFFFF" style="font-size:12px; font-family:Arial; font-weight:bold;" x="10" y="20">Over 3km Runs</text><text fill="#FFFFFF" style="font-size:4px; font-family:Arial" x="10" y="280">ATHLETE</text><text fill="#FFFFFF" style="font-size:9px; font-family:Arial" x="10" y="290">Nikola</text><text fill="#FFFFFF" style="font-size:4px; font-family:Arial" x="65" y="280">SPECIAL TRACKS</text><rect fill="yellow" height="2.6" width="2.6" x="65" y="283" /><text fill="#FFFFFF" style="font-size:3px; font-family:Arial" x="70" y="285.5">Over 20.0 km</text><rect fill="red" height="2.6" width="2.6" x="65" y="287" /><text fill="#FFFFFF" style="font-size:3px; font-family:Arial" x="70" y="289.5">Over 40.0 km</text><text fill="#FFFFFF" style="font-size:4px; font-family:Arial" x="120" y="280">STATISTICS</text><text fill="#FFFFFF" style="font-size:3px; font-family:Arial" x="120" y="285">Number: 1</text><text fill="#FFFFFF" style="font-size:3px; font-family:Arial" x="120" y="290">Weekly: 1.0</text><text fill="#FFFFFF" style="font-size:3px; font-family:Arial" x="141" y="285">Total: 3.6 km</text><text fill="#FFFFFF" style="font-size:3px; font-family:Arial" x="141" y="290">Avg: 3.6 km</text><text fill="#FFFFFF" style="font-size:3px; font-family:Arial" x="167" y="285">Min: 3.6 km</text><text fill="#FFFFFF" style="font-size:3px; font-family:Arial" x="167" y="290">Max: 3.6 km</text><polyline fill="none" points="140.6615411406383,231.0 142.77841096185148,227.8767371000722 143.48403423465788,225.37812308990397 143.3076284173876,224.12881485384423 144.71887496393174,221.63019592035562 144.89528078213334,217.04938602098264 146.8357447842136,207.8877331331605 146.8357447842136,204.55621205375064 146.3065273296088,204.76443229184952 146.1301215114072,204.55621205375064 145.42449823766947,204.55621205375064 145.07168660033494,202.89044932625256 143.48403423465788,201.64112632372417 140.6615411406383,198.10137336084154 139.07388877496123,196.6438261086587 136.95701895374805,195.18627774040215 133.60530840512365,193.52050680853426 130.60640949197114,191.23006939631887 127.07829312421381,189.7725168801844 126.90188730508089,189.7725168801844 127.43110476061702,192.2711776526412 127.43110476061702,194.9780564532848 127.07829312421381,196.6438261086587 126.19626403227448,197.47671038948465 120.37487202510238,197.8931523928186 115.0826974734664,196.6438261086587 113.49504510778934,197.47671038948465 112.61301601491868,197.26848935335875 109.9669287391007,198.30959430523217 108.55568219255656,198.10137336084154 107.85005891881883,197.68493140267674 104.85116000566632,194.35339245619252 103.26350763998926,194.35339245619252 101.85226109344512,193.93694967823103 93.91399926505983,194.56161381141283 93.91399926505983,195.60272024478763 94.26681090146303,197.26848935335875 93.73759344685823,197.68493140267674 93.91399926505983,197.47671038948465 93.91399926505983,198.51781522703823 93.73759344685823,198.51781522703823 93.56118762865663,197.68493140267674 93.73759344685823,197.26848935335875 93.91399926505983,197.26848935335875 90.91510035283864,194.9780564532848 88.62182471249253,194.76983514404856 86.85776652954519,195.18627774040215 83.85886761639267,194.35339245619252 83.68246179819107,194.56161381141283 81.74199779517949,195.18627774040215 74.68576505966485,195.18627774040215 73.62733014859259,195.60272024478763 72.74530105758458,196.22738383174874 71.68686614651233,196.43560498126317 70.9812428727746,197.26848935335875 68.68796723429114,198.51781522703823 66.74750323221087,201.0164645143086 64.45422759279609,202.4740084160585 61.27892286144197,202.89044932625256 60.74970540590584,202.4740084160585 59.86767631303519,196.6438261086587 60.044082132168114,194.76983514404856 61.27892286144197,192.2711776526412 64.80703922919929,186.64918629918247 64.45422759279609,185.39985263138078 64.63063341099769,183.31762802787125 64.27782177459449,182.69296020281035 64.63063341099769,181.65184670407325 63.92501013725996,178.94494894251693 63.74860431905836,174.780483327806 63.21938686352223,173.32291820866521 63.92501013725996,171.8653519731015 63.39579268172383,169.36666439892724 64.10141595546156,168.3255436080508 66.74750323221087,168.3255436080508 66.74750323221087,168.53376781160478 66.57109741307795,167.90909513202496 65.15985086653382,167.70087086013518 64.98344504740089,167.28442224755418 64.27782177459449,167.0761979065137 62.86657522711903,165.8268513850635 61.45532867964357,164.16105474648066 59.69127049576491,163.3281558805611 56.339559947140515,159.78833163063973 56.16315412800759,158.7472055973485 54.928313398733735,156.66495182237122 54.751907581463456,154.37447003729176 54.22269012499601,153.12511517386883 53.86987848766148,150.20995063555893 53.340661033056676,148.75236669112928 53.164255214855075,146.46187537920196 53.86987848766148,144.58783498196863 54.39909594319761,140.631521413452 55.28112503606826,138.13279281533323 56.515965764410794,135.63406093523372 56.86877740174532,133.96823785861488 58.63283558562398,130.4283589767292 58.80924140382558,129.38721687509678 59.69127049576491,127.51315965759568 61.63173449784517,125.63910059351474 63.39579268172383,125.0144138277974 63.572198499925435,122.72389393427875 64.98344504740089,117.51815664663445 64.45422759279609,115.85231770621613 64.45422759279609,114.6029375429498 65.86547414027154,110.6465616133064 66.74750323221087,105.23256016534287 66.57109741307795,101.69262781005818 67.45312650501728,99.40207983460277 67.80593814142048,97.11152910150122 68.51156141608953,94.61274333717301 68.68796723429114,93.155116792419 69.04077887162566,92.73865186003968 70.6284312363714,92.32218683662359 74.33295342326164,92.53041936014779 76.80263488087803,92.32218683662359 79.62512797489762,91.48925651679747 79.44872215669602,91.48925651679747 81.03637452237308,91.28102387930267 81.56559197697788,90.44809310289565 82.09480943158269,87.94929858588148 84.03527343459427,87.74106556084007 86.32854907400906,87.94929858588148 91.26791198924184,87.32459944381844 92.8555643549189,88.99046336696483 93.91399926505983,89.61516196175944 96.03086908534169,88.78223045635968 97.44211563374847,87.32459944381844 100.44101454596967,87.11636635055766 101.85226109344512,86.07520054385532 102.73429018445313,86.07520054385532 102.20507272984833,85.24226748780347 102.02866691164672,84.20110065536574 101.49944945704192,82.9516997038154 101.49944945704192,81.91053161758464 100.08820290863514,80.24466149380896 99.91179709043354,77.95408769173082 99.55898545403033,77.74585357320029 99.20617381669581,76.288214103668 98.32414472475648,75.66351113130804 97.61852145195007,74.20587006607093 98.14773890655488,72.95646254939493 99.20617381669581,71.9152889928082 101.49944945704192,71.4988194097532 103.26350763998926,72.53999319521245 103.43991345819086,73.37293181335554 103.26350763998926,72.1235237494111 103.08710182178766,72.33175848412793 103.43991345819086,72.53999319521245 103.43991345819086,73.16469719284214 103.43991345819086,74.20587006607093 103.61631927732378,72.95646254939493 104.49834836926311,73.78940098569728 104.85116000566632,73.78940098569728 104.67475418746471,74.62233905587345 105.38037746120244,75.87174547836185 104.85116000566632,74.62233905587345 105.55678328033537,75.4552767619025 105.55678328033537,74.41410457261372 106.61521818861365,74.41410457261372 106.79162400774658,74.62233905587345 105.55678328033537,74.83057351701427 104.85116000566632,73.9976355371764 104.85116000566632,73.78940098569728 105.02756582386792,73.78940098569728 104.67475418746471,72.95646254939493 104.67475418746471,73.16469719284214 103.79272509552538,72.33175848412793 104.14553673192859,72.95646254939493 104.14553673192859,73.9976355371764 104.49834836926311,71.29058458446525 103.79272509552538,71.4988194097532 104.67475418746471,71.9152889928082 104.85116000566632,73.16469719284214 103.79272509552538,71.7070542126894 104.85116000566632,72.74822788371239 103.43991345819086,72.1235237494111 103.61631927732378,71.9152889928082 103.26350763998926,71.4988194097532 103.26350763998926,71.9152889928082 102.91069600358605,71.9152889928082 103.26350763998926,72.33175848412793 103.08710182178766,71.4988194097532 103.43991345819086,70.87411486532073 103.61631927732378,71.29058458446525 103.43991345819086,70.87411486532073 103.43991345819086,71.29058458446525 103.79272509552538,70.66587997134775 103.08710182178766,70.66587997134775 103.96913091372699,70.04117515299004 102.55788436625153,70.04117515299004 104.14553673192859,69.20823507651221 102.02866691164672,70.24941011529882 101.85226109344512,69.0 102.38147854804993,69.20823507651221 102.38147854804993,69.62470516061876 102.02866691164672,70.45764505467378 102.02866691164672,69.41647012950853 102.38147854804993,69.62470516061876 102.20507272984833,70.24941011529882 102.20507272984833,69.83294016809668" stroke="#4DD2FF" stroke-linecap="round" stroke-linejoin="round" stroke-width="0.5"><title>2025-01-19 3.6km</title><desc>13437717697</desc></polyline></svg>