<?xml version="1.0" encoding="utf-8" ?>
<svg baseProfile="full" height="300mm" version="1.1" viewBox="0,0,200,300" width="200mm" xmlns="http://www.w3.org/2000/svg" xmlns:ev="http://www.w3.org/2001/xml-events" xmlns:xlink="http://www.w3.org/1999/xlink"><defs /><rect fill="#222222" height="300" width="200" x="0" y="0" /><text fill="#FFFFFF" style="font-size:12px; font-family:Arial; font-weight:bold;" x="10" y="20">Over 3km Runs</text><text fill="#FFFFFF" style="font-size:4px; font-family:Arial" x="10" y="280">ATHLETE</text><text fill="#FFFFFF" style="font-size:9px; font-family:Arial" x="10" y="290">Nikola</text><text fill="#FFFFFF" style="font-size:4px; font-family:Arial" x="65" y="280">SPECIAL TRACKS</text><rect fill="yellow" height="2.6" width="2.6" x="65" y="283" /><text fill="#FFFFFF" style="font-size:3px; font-family:Arial" x="70" y="285.5">Over 20.0 km</text><rect fill="red" height="2.6" width="2.6" x="65" y="287" /><text fill="#FFFFFF" style="font-size:3px; font-family:Arial" x="70" y="289.5">Over 40.0 km</text><text fill="#FFFFFF" style="font-size:4px; font-family:Arial" x="120" y="280">STATISTICS</text><text fill="#FFFFFF" style="font-size:3px; font-family:Arial" x="120" y="285">Number: 6</text><text fill="#FFFFFF" style="font-size:3px; font-family:Arial" x="120" y="290">Weekly: 2.0</text><text fill="#FFFFFF" style="font-size:3px; font-family:Arial" x="141" y="285">Total: 12.0 km</text><text fill="#FFFFFF" style="font-size:3px; font-family:Arial" x="141" y="290">Avg: 2.0 km</text><text fill="#FFFFFF" style="font-size:3px; font-family:Arial" x="167" y="285">Min: 1.0 km</text><text fill="#FFFFFF" style="font-size:3px; font-family:Arial" x="167" y="290">Max: 3.6 km</text><polyline fill="none" points="14.0,63.241311945719644 18.0593471811153,63.303605722787324 18.593471810221672,63.61507451062789 19.50148367951624,63.428193257481325 22.1186943622306,63.49048701510765 22.599406528286636,63.61507451062789 23.186943620210513,63.92654313519597 24.041543026687577,63.92654313519597 26.231454006163403,63.677368248521816 34.51038575661369,64.23801159643335 36.80712166172452,64.67406716849655 39.2106824927032,64.8609480301966 40.70623145415448,65.17241600219859 49.57270029676147,65.79535145690897 51.22848664689809,66.04452545614913 55.234421364963055,66.16911241662456 57.370919881155714,66.60516657255357 59.66765578626655,66.48057970352238 66.07715133531019,66.91663363116095 68.26706231478602,67.29039388609817 70.40356083097868,67.22810052667046 74.03560830885544,67.53956725879107 75.95845697331242,67.91332712228177 76.33234421396628,67.78874052735046 80.49851632048376,68.16250023408793 82.4747774482239,69.28377794515109 83.7566765579395,69.71982981741894 85.19881305657327,69.9067090934841 86.0,70.40505354217021 60.25519287842326,58.69384859135607 55.07418397627771,56.700429034710396 53.899109792429954,56.76272349694045 53.79228486656211,56.88731240195921 53.73887240351178,57.136490133649204 53.79228486656211,58.756142844678834 53.68545994069427,59.877438291325234 53.79228486656211,60.811849548481405 53.57863501482643,61.7462593371165 53.79228486656211,63.428193257481325 53.899109792429954,67.22810052667046 54.112759643932804,70.03129524469841 54.112759643932804,71.46403410943458 54.005934718297794,72.83447674999479 54.219584569800645,74.14262359763961 54.48664688435383,79.37518221419305 55.02077151322737,79.37518221419305 55.234421364963055,79.4997663818649 55.448071216698736,79.87351872894214 55.76854599430226,80.1226868298254 59.507418397581205,80.8701905059279 59.56083086063154,80.99477436073357 59.293768546078354,81.36852576816455 59.24035608326085,81.80456878000405 59.66765578626655,82.98811248631682 59.88130563823506,83.2995709652314 59.614243323449045,81.61769324255874 59.77448071213439,81.67998509493191 59.88130563823506,81.86686061281944 59.721068249316886,81.86686061281944 59.88130563823506,82.11602787842276 59.77448071213439,82.4897785813082 59.721068249316886,82.4274868138018 59.66765578626655,82.24061147216707 59.721068249316886,82.11602787842276 60.09495548950508,82.11602787842276 60.25519287842326,82.24061147216707 60.14836795255542,82.11602787842276 60.201780415605754,82.61436209676322 60.308605341240764,82.73894558596658 59.93471810105257,82.24061147216707 59.77448071213439,82.17831967846723" stroke="#4DD2FF" stroke-linecap="round" stroke-linejoin="round" stroke-width="0.5"><title>2025-01-27 2.2km</title><desc>13471336632</desc></polyline><polyline fill="none" points="186.0,60.17036176205147 184.36575875477865,60.60603245423408 180.49027237365954,62.185335652320646 178.8560311284382,62.566546050366014 177.03501945524476,62.784380437864456 176.47470817132853,62.947756168665364 174.46692607016303,63.111131848127116 172.73929961095564,63.819092532328796 172.31906614778563,65.83405227935873 172.27237354079261,74.16610020207008 170.82490272354335,75.0374177620979 169.84435797668993,76.83450561732752 169.70428015547805,76.94341983320192 168.16342412447557,77.92364674864803 165.968871595338,78.30484560551122 164.33463035011664,79.12169935763814 164.10116731515154,79.2850699541159 164.33463035011664,79.82963823794853 158.91828793776222,77.54244761227164 143.1361867703963,70.6808153577731 142.20233463030308,70.35406870557927 140.4747081710957,69.97286401846213 139.63424124498852,69.91840618324932 137.85992217902094,69.1015379698365 136.5058365757577,68.77479032502742 134.63813229557127,68.8292482799734 134.63813229557127,68.99262211093446 135.80544747086242,68.88370622927323 136.36575875477865,68.99262211093446 136.36575875477865,69.15599589061458 136.13229571981356,69.26491171505768 134.12451361864805,69.26491171505768 132.44357976666652,69.04708004323766 130.80933852144517,69.15599589061458 129.968871595338,69.04708004323766 129.5486381324008,69.1015379698365 125.39299610909075,68.99262211093446 124.8793774319347,69.1015379698365 123.05836575874127,68.99262211093446 122.21789883263409,68.8292482799734 120.21011673146859,68.61141642538132 119.46303501934744,68.33912647899706 119.08949416340329,68.66587439767318 119.08949416340329,69.97286401846213 118.99610894941725,70.40852649527369 118.85603112843819,70.6808153577731 117.87548638135195,70.62635759671684 117.45525291818194,70.7352731130668 117.03501945501193,70.62635759671684 115.91439688717946,71.55213875963818 115.7743190662004,71.87888465862488 115.72762645897456,72.91357865091413 115.49416342400946,74.54730181430932 115.40077821002342,74.76513118139701 115.16731517482549,74.81958850898081 115.44747081701644,74.81958850898081 115.40077821002342,74.9829604573315 115.21400778205134,75.09187506104354 114.74708171212114,75.09187506104354 114.51361867692322,75.36416147049749 114.2334630349651,75.52753324789228 114.09338521398604,75.41861873539165 114.04669260699302,75.20078964199638 114.09338521398604,75.7453622042085 114.0,75.79981942905579" stroke="#4DD2FF" stroke-linecap="round" stroke-linejoin="round" stroke-width="0.5"><title>2025-01-27 1.7km</title><desc>13471336748</desc></polyline><polyline fill="none" points="68.07179606286809,186.0 69.0126270945184,184.61188315559411 69.32623743778095,183.50138803996379 69.24783485196531,182.94613993505482 69.8750555398874,181.8356426312821 69.95345812570304,179.79972712043673 70.81588657107204,175.72788139252225 70.81588657107204,174.2472053572419 70.58067881315947,174.3397476852988 70.50227622734383,174.2472053572419 70.18866588361561,174.2472053572419 70.03186071151868,173.50686636724276 69.32623743778095,172.95161169947824 68.07179606286809,171.37838816037402 67.36617278913036,170.73058938165195 66.42534175748006,170.082790106826 64.93569262465462,169.34244747046614 63.60284866346046,168.32447528728517 62.03479694435373,167.6766741690226 61.95639435807243,167.6766741690226 62.191602115985006,168.78719006787287 62.191602115985006,169.99024731258396 62.03479694435373,170.73058938165195 61.642784014344215,171.10076017316896 59.05549867777154,171.28584550792584 56.70342109911144,170.73058938165195 55.99779782583937,171.10076017316896 55.605784895829856,171.0082174903946 54.42974610673264,171.4709308023448 53.802525418810546,171.37838816037402 53.48891507508233,171.19330284564057 52.156071113888174,169.7126188694383 51.450447840150446,169.7126188694383 50.82322715269402,169.5275331903249 47.295110784471035,169.80516169400653 47.295110784471035,170.2678756643436 47.45191595656797,171.0082174903946 47.2167081986554,171.19330284564057 47.295110784471035,171.10076017316896 47.295110784471035,171.56347343424568 47.2167081986554,171.56347343424568 47.13830561283976,171.19330284564057 47.2167081986554,171.0082174903946 47.295110784471035,171.0082174903946 45.96226682327688,169.99024731258396 44.943033205810934,169.89770450850483 44.15900734625757,170.082790106826 42.82616338506341,169.7126188694383 42.74776079924777,169.80516169400653 41.885332353413105,170.082790106826 38.74922891519964,170.082790106826 38.278813399374485,170.2678756643436 37.88680046983063,170.54550392524106 37.41638495400548,170.63804665836506 37.102774610277265,171.0082174903946 36.08354099281132,171.56347343424568 35.22111254744232,172.67398422863334 34.201878929976374,173.32178151828703 32.79063238296658,173.50686636724276 32.55542462458834,173.32178151828703 32.16341169504449,170.73058938165195 32.241814280860126,169.89770450850483 32.79063238296658,168.78719006787287 34.35868410160765,166.2885272440617 34.201878929976374,165.7332678362145 34.28028151579201,164.80783467908623 34.123476344160736,164.53020453458885 34.28028151579201,164.0674874240649 33.9666711720638,162.8644217522815 33.88826858624816,161.01354814571096 33.65306082833558,160.36574142612517 33.9666711720638,159.71793421031907 33.73146341415122,158.60740639956202 34.045073757879436,158.1446860480355 35.22111254744232,158.1446860480355 35.22111254744232,158.23723013850395 35.14270996116102,157.9595978364814 34.51548927370459,157.86705371562857 34.43708668788895,157.68196544336388 34.123476344160736,157.5894212918356 33.496255656238645,157.03415617113933 32.869034968782216,156.29380210954696 32.08500910922885,155.923624835792 30.595359976403415,154.35036961361766 30.516957390122116,153.8876469321549 29.968139288481325,152.96220080996864 29.889736702665687,151.94420890545007 29.65452894428745,151.38894007727504 29.497723772656173,150.09331139363348 29.262516014743596,149.4454963071621 29.184113428927958,148.42750016856007 29.497723772656173,147.5945933253388 29.73293153056875,145.83623173931846 30.124944460578263,144.72568569576833 30.673762561753392,143.615138193476 30.83056773385033,142.87477238161955 31.614593593403697,141.30149287858512 31.692996179219335,140.83876305562444 32.08500910922885,140.00584873673506 32.947437554597855,139.17293359711766 33.73146341415122,138.89529503462836 33.80986599996686,137.87728619301924 34.43708668788895,135.56362517632078 34.201878929976374,134.82325231388677 34.201878929976374,134.26797224133043 34.829099617898464,132.5095829392667 35.22111254744232,130.10336007352453 35.14270996116102,128.53005680447677 35.53472289117053,127.51203548209742 35.69152806326747,126.49401293398114 36.005138406995684,125.38344148319447 36.08354099281132,124.7356074633426 36.24034616490826,124.55051193782128 36.94596943818033,124.36541637184564 38.59242374356836,124.45796416007215 39.69005994684994,124.36541637184564 40.94450132222846,123.99522511858959 40.86609873594716,123.99522511858959 41.57172200968489,123.90267727972241 41.80692976759747,123.53248582355445 42.04213752551004,122.4219104826334 42.90456597087905,122.32936247152975 43.92379958834499,122.4219104826334 46.119071995373815,122.14426641946193 46.82469526864588,122.88465038535651 47.295110784471035,123.16229420521995 48.23594181612134,122.79210242506815 48.86316250357777,122.14426641946193 50.196006464771926,122.05171837803209 50.82322715269402,121.58897801948478 51.21524008223787,121.58897801948478 50.98003232432529,121.21878555015428 50.901629738509655,120.75604473572457 50.66642198059708,120.20075542392442 50.66642198059708,119.73801405227277 50.03920129267499,118.9976273305947 49.96079870685935,117.97959452966461 49.803993535228074,117.887046032527 49.647188363131136,117.23920626833569 49.25517543358728,116.96156050282298 48.94156508939341,116.31372002942953 49.17677284730598,115.75842779973755 49.647188363131136,115.29568399681011 50.66642198059708,115.11058640433475 51.450447840150446,115.57333030900918 51.528850425966084,115.94352525036084 51.450447840150446,115.38823277753545 51.37204525433481,115.4807815484819 51.528850425966084,115.57333030900918 51.528850425966084,115.85097653017147 51.528850425966084,116.31372002942953 51.607253012247384,115.75842779973755 51.999265941791236,116.12862266035518 52.156071113888174,116.12862266035518 52.077668527606875,116.49881735822419 52.39127887180075,117.05410910153296 52.156071113888174,116.49881735822419 52.46968145761639,116.86901189421769 52.46968145761639,116.40626869897824 52.94009697297588,116.40626869897824 53.01849955925718,116.49881735822419 52.46968145761639,116.59136600757483 52.156071113888174,116.22117134986911 52.156071113888174,116.12862266035518 52.23447369970381,116.12862266035518 52.077668527606875,115.75842779973755 52.077668527606875,115.85097653017147 51.68565559806302,115.4807815484819 51.8424607696943,115.75842779973755 51.8424607696943,116.22117134986911 51.999265941791236,115.0180375931086 51.68565559806302,115.11058640433475 52.077668527606875,115.29568399681011 52.156071113888174,115.85097653017147 51.68565559806302,115.2031352056656 52.156071113888174,115.66587905946653 51.528850425966084,115.38823277753545 51.607253012247384,115.29568399681011 51.450447840150446,115.11058640433475 51.450447840150446,115.29568399681011 51.29364266805351,115.29568399681011 51.450447840150446,115.4807815484819 51.37204525433481,115.11058640433475 51.528850425966084,114.83293994015548 51.607253012247384,115.0180375931086 51.528850425966084,114.83293994015548 51.528850425966084,115.0180375931086 51.68565559806302,114.74039109837031 51.37204525433481,114.74039109837031 51.76405818387866,114.46274451247882 51.13683749642223,114.46274451247882 51.8424607696943,114.09254892292665 50.901629738509655,114.5552933846484 50.82322715269402,114.0 51.05843491060659,114.09254892292665 51.05843491060659,114.27764673804631 50.901629738509655,114.64784224651521 50.901629738509655,114.18509783537593 51.05843491060659,114.27764673804631 50.98003232432529,114.5552933846484 50.98003232432529,114.37019563029753" stroke="#4DD2FF" stroke-linecap="round" stroke-linejoin="round" stroke-width="0.5"><title>2025-01-19 3.6km</title><desc>13437717697</desc></polyline><polyline fill="none" points="121.89677419350483,151.84010724409018 123.0912442393601,152.3882105059456 123.82119815680198,152.85801296820864 126.14377880189568,154.97212023468455 126.01105990773067,154.89382007712265 127.73640552978031,156.69472154264804 129.0635944698006,157.63432050973643 129.72718894015998,157.8692200590158 130.25806451612152,157.71262036799453 130.78894009208307,157.16452118038433 131.85069124400616,155.7551213427796 132.77972350199707,154.42401895014336 135.30138248833828,151.91840773564763 135.5668202766683,151.13540243386524 135.50046082935296,151.84010724409018 136.56221198150888,150.66559884196613 137.69032258051448,151.13540243386524 138.4866359445732,150.50899757590378 138.61935483827256,149.56938926217845 138.4866359445732,149.56938926217845 138.4866359445732,149.7259907334228 139.41566820279695,151.05710185645148 140.41105990763754,151.37030411424348 140.47741935495287,150.82220007339492 139.48202764964662,152.1533091594465 139.54838709696196,152.2316096170107 142.003686635755,152.93631334858947 145.58709677425213,154.1891182710533 142.80000000004657,152.30991006584372 136.82764976960607,148.94298303482356 134.0405529954005,147.45526604965562 127.86912442371249,144.63642539310968 124.7502304147929,143.61850798525847 119.04331797221676,143.14869946293766 115.39354838686995,143.3053023381508 114.72995391697623,143.07039801270002 114.19907834078185,142.83549361035693 114.0,142.44398610200733 114.0,142.20908149407478 114.39815668202937,142.130779940926 115.06175115215592,142.20908149407478 116.91981566813774,143.2270009049098 119.04331797221676,143.69680937554222 122.75944700464606,143.54020658624358 125.41382488468662,144.08831619942794 132.18248847918585,144.87132920499425 136.56221198150888,145.02793170313817 139.7474654377438,144.87132920499425 141.67188940080814,145.10623293940444 144.45898617524654,145.8892448321567 147.71059907833114,146.04584710794734 151.02857142849825,146.67225586873246 159.92073732730933,147.06376106629614 166.15852534561418,146.98546004405944 168.94562211981975,147.22036308515817 171.53364055324346,147.06376106629614 173.78986175148748,147.14206208003452 176.24516129051335,147.6901689368533 178.56774193560705,148.70808055833913 181.95207373285666,150.66559884196613 184.47373271896504,152.4665109377238 184.67281105997972,152.2316096170107 184.8718894009944,150.50899757590378 185.13732718885876,149.7259907334228 185.46912442403845,149.33448699128348 186.0,149.49108851363417" stroke="#4DD2FF" stroke-linecap="round" stroke-linejoin="round" stroke-width="0.5"><title>2025-01-17 2.0km</title><desc>13437717788</desc></polyline><polyline fill="none" points="86.0,197.43659504887182 79.06377204880118,196.9755057474831 75.35142469452694,197.20605042332318 71.83446404337883,197.8976841487456 69.7829036633484,198.81986174348276 67.82903663488105,199.97258260275703 64.21438263216987,200.89475838362705 60.11126187257469,201.2405740933027 54.933514246251434,201.12530220241752 52.588873812928796,203.43073762126733 52.39348710980266,207.00415256014094 52.2957937582396,208.2721355955582 51.611940298229456,210.2317427425878 51.12347354134545,212.99824075051583 49.46268656710163,214.26621657889336 46.53188602440059,213.80513463588431 47.41112618660554,213.80513463588431 50.244233378209174,214.84256872406695 50.244233378209174,215.07310949428938 50.928086838684976,217.954864865751 51.416553595568985,222.450387520832 52.784260515123606,226.3695454823319 53.077340569812804,234.55362249852624 55.421981004066765,235.93684050871525 59.52510176366195,235.70630429999437 62.55359565792605,237.43532463908195 62.45590230636299,244.58191197086126 62.94436906371266,248.9620544638019 63.6282225237228,257.03069038456306 63.53052917215973,260.83445448079146 65.09362279484048,261.8718423076207 65.87516960641369,262.79396396433003 65.19131614640355,263.0244942525169 64.40976933483034,262.90922911453526 60.89280868368223,262.2176380235469 56.30122116673738,260.83445448079146 49.85345997242257,258.5291445449693 40.47489823587239,254.72537213459145 37.251017638947815,253.11164636153262 34.32021709671244,251.15211888880003 31.584803256206214,249.76892083359417 27.48168249661103,248.1551874767756 22.98778833076358,246.77198549138848 18.396200814284384,245.84984982653987 16.051560379564762,245.84984982653987 14.879240162670612,246.08038381836377 14.293080053757876,246.426184711745 14.0,246.88725239271298 14.0,247.80938715056982 14.293080053757876,249.76892083359417" stroke="#4DD2FF" stroke-linecap="round" stroke-linejoin="round" stroke-width="0.5"><title>2025-01-08 1.4km</title><desc>13437717780</desc></polyline><polyline fill="none" points="155.1158840348944,194.0 155.77837261511013,195.38968779833522 155.85198245709762,196.17138611711562 155.6311529306695,196.6925179020618 154.82144466554746,197.38735975057352 154.52700529666618,197.99534586945083 154.30617577023804,199.38502668018918 154.3797856126912,200.77470506029204 155.6311529306695,204.59630807349458 156.07281198399141,209.199578208616 157.25056945951656,215.01876832847483 157.98666788171977,217.88492093252717 159.90052377944812,223.61719512665877 160.78384188655764,226.74387271294836 161.22550093987957,229.08887282881187 161.44633046677336,232.0418260943261 162.03520920453593,237.6871473842184 162.55047809984535,240.72691915970063 163.58101589092985,243.50612889346667 164.31711431359872,246.45902858598856 165.34765210468322,252.01739824196557 166.01014068489894,256.4466962283477 167.55594737129286,262.61293271166505 169.02814421616495,266.0 168.8809245317243,266.0 164.97960289381444,264.8709791744477 154.96866435045376,260.26803151750937 149.96319507900625,258.27051763568306 147.9021194963716,257.57572902180254 145.54660454485565,257.0546371625969 144.6632864382118,257.14148582937196 143.485528962221,257.40203177311923 140.83557464228943,258.35736616980284 140.02586637809873,258.35736616980284 138.84810890210792,258.00997197645484 136.93425300437957,257.0546371625969 134.79956757975742,255.49135953502264 132.8857116815634,253.49383364710957 130.97185578383505,250.9752068928792 131.33990499470383,251.4963027383783" stroke="#4DD2FF" stroke-linecap="round" stroke-linejoin="round" stroke-width="0.5"><title>2025-01-07 1.0km</title><desc>13437717841</desc></polyline></svg>