<?xml version="1.0" encoding="utf-8" ?>
<svg baseProfile="full" height="300mm" version="1.1" viewBox="0,0,200,300" width="200mm" xmlns="http://www.w3.org/2000/svg" xmlns:ev="http://www.w3.org/2001/xml-events" xmlns:xlink="http://www.w3.org/1999/xlink"><defs /><rect fill="#222222" height="300" width="200" x="0" y="0" /><text fill="#FFFFFF" style="font-size:12px; font-family:Arial; font-weight:bold;" x="10" y="20">Over 3km Runs</text><text fill="#FFFFFF" style="font-size:4px; font-family:Arial" x="10" y="280">ATHLETE</text><text fill="#FFFFFF" style="font-size:9px; font-family:Arial" x="10" y="290">Nikola</text><text fill="#FFFFFF" style="font-size:4px; font-family:Arial" x="65" y="280">SPECIAL TRACKS</text><rect fill="yellow" height="2.6" width="2.6" x="65" y="283" /><text fill="#FFFFFF" style="font-size:3px; font-family:Arial" x="70" y="285.5">Over 20.0 km</text><rect fill="red" height="2.6" width="2.6" x="65" y="287" /><text fill="#FFFFFF" style="font-size:3px; font-family:Arial" x="70" y="289.5">Over 40.0 km</text><text fill="#FFFFFF" style="font-size:4px; font-family:Arial" x="120" y="280">STATISTICS</text><text fill="#FFFFFF" style="font-size:3px; font-family:Arial" x="120" y="285">Number: 7</text><text fill="#FFFFFF" style="font-size:3px; font-family:Arial" x="120" y="290">Weekly: 2.3</text><text fill="#FFFFFF" style="font-size:3px; font-family:Arial" x="141" y="285">Total: 13.3 km</text><text fill="#FFFFFF" style="font-size:3px; font-family:Arial" x="141" y="290">Avg: 1.9 km</text><text fill="#FFFFFF" style="font-size:3px; font-family:Arial" x="167" y="285">Min: 1.0 km</text><text fill="#FFFFFF" style="font-size:3px; font-family:Arial" x="167" y="290">Max: 3.6 km</text><polyline fill="none" points="49.76685629459098,87.0 48.92124103102833,85.76719239415252 48.07562576746568,84.04125632162322 47.56825660937466,82.80844096696819 47.018606687895954,81.08249404566595 46.59579905634746,80.09623582073255 46.42667600349523,79.60310593325994 46.046149134868756,78.66615772395744 45.327376160770655,77.38401504684589 45.03141081845388,76.447062420164 44.31263784435578,75.06628672892111 44.18579555512406,73.93207509507192 43.55158410733566,71.17050490612746 44.05895326542668,69.93765584056382 44.90456852898933,68.7541176994855 45.75018379255198,67.37331944025937 46.891764398431405,65.84457378511433 48.20246805716306,63.42815923519083 48.79439874156378,62.14597504847916 49.17492561019026,60.71584241153323 49.64001400512643,59.58159619563958 50.31650621606968,58.595292916405015 50.73931384785101,57.6583028867899 51.45808682194911,56.573364732350456 51.54264834825881,56.277472074260004 52.13457903289236,55.192530736821936 52.557386664673686,54.15690258148243 52.81107124360278,52.67742983484641 53.02247505960986,50.50752806026139 50.65475232154131,49.37325724164839 31.501566600985825,40.397626529826084 30.40226675826125,39.46060026809573 29.34524767869152,38.91811052703997 28.71103623090312,38.52357214080985 27.73857867787592,37.53722472782829 27.569455625023693,36.64951028858195 27.527174861868843,35.8111117806111 27.400332572404295,34.775440972996876 27.569455625023693,33.98635692312382 27.442613335559145,33.78908570393105 27.358051809016615,33.34522515826393 26.97752494062297,33.04931789537659 27.10436723008752,33.0 27.231209519552067,33.09863578539807 27.527174861868843,33.39454301743535 27.569455625023693,33.73976788620348 27.73857867787592,34.18362805969082 27.73857867787592,34.33158135775011 27.527174861868843,34.33158135775011 27.654017151566222,34.43021686398424 27.654017151566222,34.28226359683322 27.569455625023693,34.28226359683322 27.611736388178542,34.33158135775011" stroke="#4DD2FF" stroke-linecap="round" stroke-linejoin="round" stroke-width="0.5"><title>2025-01-29 1.3km</title><desc>13481276884</desc></polyline><polyline fill="none" points="133.0,54.93098395931884 136.04451038572006,54.977704292105045 136.44510385766625,55.211305883014575 137.12611275957897,55.07114494315465 139.08902077167295,55.11786526135984 139.44955489621498,55.211305883014575 139.8902077153325,55.44490735142608 140.5311572700739,55.44490735142608 142.17359050456434,55.25802618643502 148.38278931751847,55.678508697339566 150.10534124611877,56.005550376401516 151.9080118695274,56.145711022662 153.02967359055765,56.37931200166349 159.6795252226293,56.84651359269628 160.92136498517357,57.03339409211185 163.9258160237223,57.12683431248297 165.5281899110414,57.453874929458834 167.2507418396417,57.36043477765634 172.05786350159906,57.68747522338526 173.7002967360895,57.967795414617285 175.30267062340863,57.9210753950174 178.02670623152517,58.154675444122404 179.4688427299261,58.43499534172588 179.7492581603583,58.34155539551284 182.8738872401882,58.62187517559505 184.35608308622614,59.46283345890697 185.31750741857104,59.789872363064205 186.39910979242995,59.93003182011307 187.0,60.30379015667131 167.69139465875924,51.520386443531606 163.80563798220828,50.02532177604735 162.92433234420605,50.07204262271989 162.84421364986338,50.16548430148396 162.80415430269204,50.352367600251455 162.84421364986338,51.567107133509126 162.7640949555207,52.40807871852303 162.84421364986338,53.10888716139016 162.68397626117803,53.80969450288103 162.84421364986338,55.07114494315465 162.92433234420605,57.9210753950174 163.0845697328914,60.02347143355291 163.0845697328914,61.09802558211959 163.00445103854872,62.1258575625252 163.1646884274669,63.10696769822971 163.36498516309075,67.03138666064478 163.76557863503695,67.03138666064478 163.9258160237223,67.12482478644233 164.08605341264047,67.40513904672116 164.32640949566849,67.5920151223836 167.1305637981277,68.15264287946047 167.17062314553186,68.24608077059384 166.97032640944235,68.52639432612341 166.930267062271,68.85342658503214 167.2507418396417,69.74108436476672 167.41097922855988,69.97467822395265 167.2106824927032,68.71326993193361 167.33086053398438,68.75998882122803 167.41097922855988,68.90014545962913 167.29080118704587,68.90014545962913 167.41097922855988,69.08702090883162 167.33086053398438,69.36733393601025 167.29080118704587,69.3206151103659 167.2507418396417,69.1804586041253 167.29080118704587,69.08702090883162 167.57121661724523,69.08702090883162 167.69139465875924,69.1804586041253 167.61127596441656,69.08702090883162 167.65133531182073,69.46077157257241 167.73145400593057,69.55420918948948 167.45103857573122,69.1804586041253 167.33086053398438,69.13373975886498" stroke="#4DD2FF" stroke-linecap="round" stroke-linejoin="round" stroke-width="0.5"><title>2025-01-27 2.2km</title><desc>13471336632</desc></polyline><polyline fill="none" points="67.0,112.6277713215386 65.7743190662004,112.95452434069011 62.86770428030286,114.13900173924048 61.64202334638685,114.42490953777451 60.27626459149178,114.58828532838379 59.85603112843819,114.71081712652813 58.35019455256406,114.83334888608078 57.05447470827494,115.36431939926115 56.73929961095564,116.87553920951905 56.70428015559446,123.12457515156711 55.618677042773925,123.77806332160253 54.883268482633866,125.1258792130102 54.77821011666674,125.20756487490144 53.622568093356676,125.94273506148602 51.976653696619906,126.22863420413341 50.750972762703896,126.8412745182577 50.57587548648007,126.96380246561603 50.750972762703896,127.3722286784614 46.68871595337987,125.65683570920373 34.85214007773902,120.51061151834438 34.151750972727314,120.26555152918445 32.856031128321774,119.97964801386115 32.225680933799595,119.93880463743699 30.894941634265706,119.32615347739193 29.8793774319347,119.08109274375602 28.478599221794866,119.1219362099655 28.478599221794866,119.2444665831863 29.354085603146814,119.16277967198403 29.77431906608399,119.2444665831863 29.77431906608399,119.36699691796093 29.599221789976582,119.44868378626416 28.09338521398604,119.44868378626416 26.832684825058095,119.28531003242824 25.607003891142085,119.36699691796093 24.97665369650349,119.28531003242824 24.661478599300608,119.32615347739193 21.54474708181806,119.2444665831863 21.159533074009232,119.32615347739193 19.793774318997748,119.2444665831863 19.163424124591984,119.1219362099655 17.65758754860144,118.95856231905054 17.09727626456879,118.7543448592478 16.817120622610673,118.99940579826944 16.817120622610673,119.97964801386115 16.74708171223756,120.30639487146982 16.64202334638685,120.51061151834438 15.90661478601396,120.46976819756674 15.591439688694663,120.55145483481465 15.276264591375366,120.46976819756674 14.435797665501013,121.16410406972864 14.330739299650304,121.40916349398321 14.295719844289124,122.1851839882147 14.120622568181716,123.41047636073199 14.050583657575771,123.57384838606231 13.875486381235532,123.61469138172106 14.085603112820536,123.61469138172106 14.050583657575771,123.73722034299863 13.910505836596712,123.81890629578265 13.56031128403265,123.81890629578265 13.385214007692412,124.02312110288767 13.175097276340239,124.14564993590466 13.07003891048953,124.06396405154373 13.03501945536118,123.90059223151184 13.07003891048953,124.30902165314183 13.0,124.34986457182094" stroke="#4DD2FF" stroke-linecap="round" stroke-linejoin="round" stroke-width="0.5"><title>2025-01-27 1.7km</title><desc>13471336748</desc></polyline><polyline fill="none" points="173.55384704703465,147.0 174.25947032077238,145.95891236671014 174.4946780782193,145.1260410299874 174.4358761392068,144.70960495132022 174.90629165479913,143.87673197343247 174.96509359427728,142.34979534032755 175.61191492830403,139.29591104440624 175.61191492830403,138.18540401791688 175.4355091098696,138.25481076398864 175.37670717039146,138.18540401791688 175.1414994127117,138.18540401791688 175.0238955335226,137.63014977541752 174.4946780782193,137.21370877459412 173.55384704703465,136.0337911202805 173.02462959173135,135.54794203623896 172.31900631799363,135.06209258013405 171.20176946837455,134.50683560286416 170.20213649747893,133.74335646547843 169.02609770814888,133.25750562676694 168.9672957684379,133.25750562676694 169.14370158687234,134.0903925509192 169.14370158687234,134.99268548446707 169.02609770814888,135.54794203623896 168.73208801075816,135.82557012984762 166.79162400821224,135.96438413095893 165.0275658245664,135.54794203623896 164.4983483692631,135.82557012984762 164.2043386718724,135.75616311776685 163.32230957993306,136.10319810174406 162.85189406434074,136.0337911202805 162.61668630619533,135.89497713424498 161.61705333529972,134.78446415206417 161.08783587999642,134.78446415206417 160.6174203644041,134.64564989274368 157.9713330885861,134.85387127049034 157.9713330885861,135.20090674830135 158.08893696730956,135.75616311776685 157.91253114887513,135.89497713424498 157.9713330885861,135.82557012984762 157.9713330885861,136.1726050756988 157.91253114887513,136.1726050756988 157.85372920962982,135.89497713424498 157.91253114887513,135.75616311776685 157.9713330885861,135.75616311776685 156.9717001176905,134.99268548446707 156.20727490424179,134.92327838140773 155.619255509926,135.06209258013405 154.61962253879756,134.78446415206417 154.5608205993194,134.85387127049034 153.91399926529266,135.06209258013405 151.56192168663256,135.06209258013405 151.2091100497637,135.20090674830135 150.91510035237297,135.40912794391625 150.56228871573694,135.4785349937738 150.32708095759153,135.75616311776685 149.56265574484132,136.1726050756988 148.91583441058174,137.005488171475 148.1514091975987,137.49133613868617 147.09297428722493,137.63014977541752 146.91656846855767,137.49133613868617 146.62255877116695,135.54794203623896 146.68136071087793,134.92327838140773 147.09297428722493,134.0903925509192 148.26901307632215,132.21639543306082 148.1514091975987,131.79995087714633 148.21021113707684,131.10587600932922 148.09260725812055,130.8976534009562 148.21021113707684,130.55061556800501 147.97500337916426,129.64831631421112 147.91620143968612,128.26016110926867 147.7397956212517,127.77430606959388 147.97500337916426,127.2884506577393 147.79859756072983,126.45555479964241 148.0338053186424,126.10851453605574 148.91583441058174,126.10851453605574 148.91583441058174,126.17792260384886 148.8570324711036,125.96969837736106 148.38661695551127,125.90029028669233 148.3278150158003,125.76147408253746 148.09260725812055,125.6920659688767 147.6221917422954,125.2756171283545 147.15177622647025,124.72035158216022 146.56375683192164,124.4427186268731 145.44651998230256,123.26277721021324 145.3877180425916,122.91573519911617 144.97610446624458,122.22165060747648 144.91730252699926,121.45815667911666 144.740896708332,121.04170505795628 144.6232928293757,120.06998354522511 144.4468870111741,119.58412223035702 144.38808507169597,118.82062512642005 144.6232928293757,118.19594499398954 144.79969864781015,116.8771738045034 145.0937083454337,116.04426427179715 145.50532192154787,115.2113536450779 145.62292580050416,114.65607928624377 146.21094519505277,113.47611965890974 146.26974713453092,113.12907229171833 146.56375683192164,112.5043865525513 147.21057816618122,111.87970019783825 147.79859756072983,111.67147127597127 147.85739950020798,110.90796464477899 148.3278150158003,109.17271888221148 148.1514091975987,108.61743923544418 148.1514091975987,108.20097918104148 148.62182471342385,106.88218720443547 148.91583441058174,105.07752005511429 148.8570324711036,103.89754260337213 149.1510421684943,103.13402661157306 149.26864604721777,102.3705097005004 149.50385380536318,101.53758111241041 149.56265574484132,101.0517055974924 149.6802596237976,100.91288395336596 150.20947707886808,100.77406227885513 151.44431780767627,100.84347312006867 152.26754496013746,100.77406227885513 153.20837599155493,100.49641883891309 153.1495740520768,100.49641883891309 153.67879150738008,100.42700795980636 153.85519732558168,100.14936436765129 154.03160314401612,99.3164328619605 154.6784244782757,99.24702185363276 155.44284969149157,99.3164328619605 157.08930399641395,99.10819981462555 157.61852145171724,99.66348778898828 157.9713330885861,99.87172065390041 158.67695636185817,99.59407681878656 159.14737187791616,99.10819981462555 160.14700484881178,99.03878878353862 160.6174203644041,98.69173351459904 160.911430061562,98.69173351459904 160.73502424336039,98.41408916260116 160.6762223036494,98.06703355180798 160.49981648568064,97.65056656795787 160.49981648568064,97.30351053923368 160.02940096938983,96.74822049791692 159.97059903037734,95.98469589726301 159.85299515142106,95.9152845243807 159.73539127223194,95.42940470122267 159.44138157507405,95.22117037716089 159.20617381716147,94.73529002204305 159.38257963536307,94.31882084981771 159.73539127223194,93.97176299762214 160.49981648568064,93.83293980325107 161.08783587999642,94.17999773175688 161.14663781947456,94.45764393778518 161.08783587999642,94.04117458319524 161.02903394051827,94.11058616137598 161.14663781947456,94.17999773175688 161.14663781947456,94.38823239767225 161.14663781947456,94.73529002204305 161.2054397589527,94.31882084981771 161.49944945657626,94.59646699525183 161.61705333529972,94.59646699525183 161.55825139582157,94.87411301868269 161.79345915373415,95.29058182612062 161.61705333529972,94.87411301868269 161.85226109344512,95.15175892069237 161.85226109344512,94.80470152420457 162.2050727296155,94.80470152420457 162.26387466932647,94.87411301868269 161.85226109344512,94.94352450565202 161.61705333529972,94.66587851243094 161.61705333529972,94.59646699525183 161.67585527477786,94.59646699525183 161.55825139582157,94.31882084981771 161.55825139582157,94.38823239767225 161.26424169843085,94.11058616137598 161.3818455771543,94.31882084981771 161.3818455771543,94.66587851243094 161.49944945657626,93.76352819486056 161.26424169843085,93.83293980325107 161.55825139582157,93.97176299762214 161.61705333529972,94.38823239767225 161.26424169843085,93.9023514042492 161.61705333529972,94.2494092945708 161.14663781947456,94.04117458319524 161.2054397589527,93.97176299762214 161.08783587999642,93.83293980325107 161.08783587999642,93.97176299762214 160.97023200127296,93.97176299762214 161.08783587999642,94.11058616137598 161.02903394051827,93.83293980325107 161.14663781947456,93.62470495508751 161.2054397589527,93.76352819486056 161.14663781947456,93.62470495508751 161.14663781947456,93.76352819486056 161.26424169843085,93.55529332376318 161.02903394051827,93.55529332376318 161.32304363814183,93.34705838433001 160.85262812208384,93.34705838433001 161.3818455771543,93.06941169220954 160.6762223036494,93.41647003847174 160.6174203644041,93.0 160.79382618283853,93.06941169220954 160.79382618283853,93.20823505352018 160.6762223036494,93.48588168487186 160.6762223036494,93.13882337650284 160.79382618283853,93.20823505352018 160.73502424336039,93.41647003847174 160.73502424336039,93.27764672267949" stroke="#4DD2FF" stroke-linecap="round" stroke-linejoin="round" stroke-width="0.5"><title>2025-01-19 3.6km</title><desc>13437717697</desc></polyline><polyline fill="none" points="18.922580645186827,181.38008043303853 19.8184331797529,181.7911578794592 20.36589861754328,182.14350972615648 22.10783410165459,183.72909017605707 22.008294930681586,183.67036505782744 23.302304147509858,185.02104115701513 24.297695852583274,185.72574038233142 24.795391705352813,185.90191504429094 25.19354838714935,185.7844652759959 25.591705069178715,185.3733908853028 26.388018433004618,184.31634100707015 27.08479262655601,183.31801421265118 28.97603686642833,181.43880580173573 29.175115207443014,180.85155182541348 29.125345622189343,181.38008043303853 29.921658986248076,180.4991991314455 30.76774193556048,180.85155182541348 31.3649769583717,180.38174818194238 31.46451612887904,179.6770419466775 31.3649769583717,179.6770419466775 31.3649769583717,179.79449305008166 32.06175115215592,180.7928263923386 32.80829493096098,181.02772808569716 32.858064516214654,180.6166500550462 32.11152073740959,181.61498186958488 32.16129032266326,181.67370721278712 34.00276497681625,182.2022350114421 36.690322580747306,183.14183870330453 34.60000000009313,181.7324325493537 30.12073732726276,179.20723727613222 28.030414746608585,178.09144953725627 23.40184331778437,175.9773190448177 21.06267281109467,175.21388098894386 16.78248847927898,174.8615245972178 14.045161290094256,174.97897675359854 13.547465437790379,174.80279850953957 13.149308755761012,174.6266202077968 13.0,174.3329895765055 13.0,174.15681112057064 13.298617511754856,174.09808495570906 13.796313364291564,174.15681112057064 15.189861751161516,174.9202506786678 16.78248847927898,175.27260703168577 19.569585253484547,175.1551549396827 21.56036866363138,175.5662371495855 26.636866359505802,176.1534969037748 29.921658986248076,176.27094877732452 32.310599078424275,176.1534969037748 33.75391705078073,176.32967470452422 35.8442396314349,176.91693362413207 38.28294930886477,177.03438533097506 40.77142857154831,177.504191901593 47.4405529955402,177.797820799693 52.11889400938526,177.73909503303003 54.2092165898066,177.91527231386863 56.150230414932594,177.797820799693 57.8423963135574,177.85654656001134 59.68387096794322,178.26762670261087 61.4258064518217,179.03106041875435 63.96405529975891,180.4991991314455 65.85529953916557,181.8498832032783 66.00460829492658,181.67370721278712 66.1539170506876,180.38174818194238 66.35299539170228,179.79449305008166 66.60184331820346,179.5008652434335 67.0,179.61831638519652" stroke="#4DD2FF" stroke-linecap="round" stroke-linejoin="round" stroke-width="0.5"><title>2025-01-17 2.0km</title><desc>13437717788</desc></polyline><polyline fill="none" points="187.0,155.57744628662476 181.7978290366009,155.23162931058323 179.01356852101162,155.40453781746328 176.37584803253412,155.9232631115592 174.8371777473949,156.61489630758297 173.37177747581154,157.47943695209688 170.66078697424382,158.17106878769118 167.58344640443102,158.43043056991883 163.70013568503782,158.34397665184224 161.9416553596966,160.0730532159796 161.79511533211917,162.7531144201057 161.72184531856328,163.70410169666866 161.2089552236721,165.17380705691176 160.84260515589267,167.24868056288688 159.59701492497697,168.19966243417002 157.39891451830044,167.85385097691324 158.05834463983774,167.85385097691324 160.18317503342405,168.6319265430211 160.18317503342405,168.80483212071704 160.6960651287809,170.96614864928415 161.06241519656032,174.3377906406531 162.0881953863427,177.2771591116907 162.30800542701036,183.41521687392378 164.0664857532829,184.45263038150733 167.14382632263005,184.27972822496668 169.41519674332812,185.57649347925326 169.34192672977224,190.93643397814594 169.70827679755166,194.22154084785143 170.2211668929085,200.2730177884223 170.14789687888697,203.1258408605936 171.32021709624678,203.90388173074462 171.90637720469385,204.59547297324752 171.39348710980266,204.76837068941677 170.8073270013556,204.68192183587234 168.1696065128781,204.16322851763107 164.7259158748202,203.1258408605936 159.8900949792005,201.39685840869788 152.8561736769043,198.54402910091449 150.43826322909445,197.33373477112036 148.24016282241791,195.86408916657092 146.18860244192183,194.82669062516652 143.11126187210903,193.6163906075526 139.74084124807268,192.57898911851225 136.29715061048046,191.8873873698758 134.53867028467357,191.8873873698758 133.65943012200296,192.06028786377283 133.219810040202,192.31963853380876 133.0,192.66543929453474 133.0,193.35704036295647 133.219810040202,194.82669062516652" stroke="#4DD2FF" stroke-linecap="round" stroke-linejoin="round" stroke-width="0.5"><title>2025-01-08 1.4km</title><desc>13437717780</desc></polyline><polyline fill="none" points="43.836913026170805,213.0 44.33377946144901,214.0422658487223 44.3889868427068,214.6285395878367 44.223364698002115,215.0193884265609 43.61608349950984,215.54051981295925 43.39525397284888,215.99650940211723 43.22963182791136,217.03877001011278 43.28483920963481,218.08102879521903 44.223364698002115,220.94723105517915 44.554608988109976,224.399683656462 45.43792709475383,228.76407624635613 45.990000911289826,230.91369069943903 47.42539283493534,235.21289634500863 48.08788141491823,237.55790453474037 48.41912570502609,239.31665462162346 48.584747850196436,241.53136957075913 49.026406903518364,245.76536053820746 49.41285857511684,248.04518936981913 50.18576191854663,250.1295966701 50.73783573531546,252.34427143947687 51.510739078512415,256.5130486814887 52.00760551379062,259.8350221712608 53.16696052881889,264.45969953376334 54.27110816212371,267.0 54.16069339867681,267.0 51.23470217036083,266.15323438087944 43.72649826272391,262.70102363819024 39.97239630925469,261.20288822677685 38.42658962216228,260.6817967663519 36.65995340887457,260.2909778719768 35.99746482865885,260.35611437202897 35.11414672201499,260.55152382986853 33.12668098183349,261.26802462741034 32.519399783574045,261.26802462741034 31.63608167669736,261.0074789823848 30.200689753284678,260.2909778719768 28.599675684934482,259.1185196512379 27.16428376128897,257.6203752353322 25.72889183787629,255.73140516970307 26.004928746027872,256.12222705379827" stroke="#4DD2FF" stroke-linecap="round" stroke-linejoin="round" stroke-width="0.5"><title>2025-01-07 1.0km</title><desc>13437717841</desc></polyline></svg>