<?xml version="1.0" encoding="utf-8" ?>
<svg baseProfile="full" height="300mm" version="1.1" viewBox="0,0,200,300" width="200mm" xmlns="http://www.w3.org/2000/svg" xmlns:ev="http://www.w3.org/2001/xml-events" xmlns:xlink="http://www.w3.org/1999/xlink"><defs /><rect fill="#222222" height="300" width="200" x="0" y="0" /><text fill="#FFFFFF" style="font-size:12px; font-family:Arial; font-weight:bold;" x="10" y="20">Over 3km Runs</text><text fill="#FFFFFF" style="font-size:4px; font-family:Arial" x="10" y="280">ATHLETE</text><text fill="#FFFFFF" style="font-size:9px; font-family:Arial" x="10" y="290">Nikola</text><text fill="#FFFFFF" style="font-size:4px; font-family:Arial" x="65" y="280">SPECIAL TRACKS</text><rect fill="yellow" height="2.6" width="2.6" x="65" y="283" /><text fill="#FFFFFF" style="font-size:3px; font-family:Arial" x="70" y="285.5">Over 20.0 km</text><rect fill="red" height="2.6" width="2.6" x="65" y="287" /><text fill="#FFFFFF" style="font-size:3px; font-family:Arial" x="70" y="289.5">Over 40.0 km</text><text fill="#FFFFFF" style="font-size:4px; font-family:Arial" x="120" y="280">STATISTICS</text><text fill="#FFFFFF" style="font-size:3px; font-family:Arial" x="120" y="285">Number: 10</text><text fill="#FFFFFF" style="font-size:3px; font-family:Arial" x="120" y="290">Weekly: 2.0</text><text fill="#FFFFFF" style="font-size:3px; font-family:Arial" x="141" y="285">Total: 22.4 km</text><text fill="#FFFFFF" style="font-size:3px; font-family:Arial" x="141" y="290">Avg: 2.2 km</text><text fill="#FFFFFF" style="font-size:3px; font-family:Arial" x="167" y="285">Min: 1.0 km</text><text fill="#FFFFFF" style="font-size:3px; font-family:Arial" x="167" y="290">Max: 4.0 km</text><polyline fill="none" points="14.836970475036651,37.275396785349585 14.490372272091918,37.56177271984052 14.317073170677759,37.84814843503409 14.386392811313272,38.83000636391807 14.490372272091918,39.40275563148316 14.663671373506077,39.81186171399895 14.871630295179784,40.09823570525623 15.668806161615066,40.83462496107677 15.98074454430025,41.20281904499279 16.223363286233507,41.73465430375654 16.60462130943779,42.961963551380904 16.67394094984047,43.41197593259858 16.67394094984047,43.57561666419497 16.70860077010002,43.69834716580226 17.193838254199363,43.69834716580226 23.571245186030865,42.511950628540944 24.57637997425627,43.33015554002486 24.922978177084588,44.80291986747761 24.95763799746055,44.84382990482845 25.96277278556954,45.00747000973206 27.349165596882813,44.47563940731925 28.59691912692506,44.72109977941727 29.810012836940587,45.33475000431645 30.780487804790027,46.152948737260886 30.39922978170216,46.48022772898548 28.770218228455633,46.52113758283667 29.84467265731655,46.52113758283667 31.0231065468397,47.42115323425969 31.785622593015432,47.912069948913995 29.913992297719233,46.88932606574963 23.363286264357157,43.65743700310122 21.318356867763214,42.389219737262465 18.996148908976465,41.73465430375654 17.297817715094425,41.36646074359305 15.84210526314564,41.20281904499279 15.287548138643615,41.24372947632219 14.871630295179784,41.325550325680524 14.55969191272743,41.57101276621688 14.317073170677759,41.98011647569365 13.727856225916184,43.73925732405041 13.13863928115461,45.048380024702055 13.0,45.74384959466988 13.103979460778646,46.56204743211856 13.346598202828318,47.33933371907915 13.797175866435282,47.952979646011954 14.1437740692636,48.239347400609404 15.391527599422261,48.97572061920073 16.431322207907215,49.67118288256461 16.881899871630594,49.99845879414352 17.228498074458912,50.36664385226322 17.401797175756656,50.65300975777791 17.783055198960938,51.59392476006178 18.060333761153743,52.49392819849891 18.094993581529707,52.943929105153074 17.887034659856,53.598474911472294 17.921694480115548,54.048474488576176 17.99101412075106,54.13029253532295 18.302952503203414,54.293928574974416 18.684210526407696,54.21211056414177 22.531450577662326,52.00301750074141 25.13093709887471,51.103012880368624 25.96277278556954,50.898466073704185 27.037227214314044,50.734828547690995 29.498074454371817,50.65300975777791 30.953786906437017,50.93937544399523 32.132220795960166,51.471196850645356 35.59820282412693,53.80302024091361 38.405648266896605,55.60301431437256 39.306803594343364,56.25755546501023 40.20795892167371,57.157547675975366 40.97047496784944,58.05753772036405 41.59435173298698,59.57115245432942 42.010269576334395,60.102961581753334 42.391527599538676,60.430228361074114 44.50577663676813,61.61656803442747 46.13478819001466,62.393823020742275 47.65982028224971,62.92562813294353 49.704749679076485,63.252892441290896 50.18998716305941,63.45743248867802 51.47240051347762,64.15286781234317 52.546854942222126,64.93011752568418 54.41848523740191,66.73005802647094 55.90885750961024,67.75274763238849 59.06290115532465,70.166284010862 59.444159178296104,70.57535642909352 59.61745827971026,70.94352122285636 59.65211810008623,71.59803551682853 59.444159178296104,72.7843397538818 59.65211810008623,73.15250237248256 60.172015404328704,73.64338530006353 61.246469833073206,74.33880167757161 61.974326059105806,74.95240328938235 63.15275994874537,76.34322988145868 64.53915275994223,77.57042551931227 65.33632862637751,78.51127278039348 65.47496790753212,78.92033606860787 65.57894736831076,79.77936751718516 65.89088575099595,80.6383969920571 65.99486521165818,81.0474579531583 65.96020539139863,81.57923653340549 65.68292682920583,82.47916779256775 65.71758664946537,82.72460321465041 65.82156611036044,82.72460321465041 65.99486521165818,82.60188552364707 66.79204107832629,81.57923653340549 66.96534017962404,81.21108221219038 67.0,80.88383362241439 66.3414634144865,79.69755508331582 65.54428754816763,78.67489814950386 64.08857509621885,77.28408023066004 62.8408215661766,75.97507040470373 62.07830551988445,75.03421676153084 61.419768934487365,74.01154707279056 60.2413350448478,71.67984972288832 59.47881899878848,70.6162636463705 58.681643132236786,69.79811845172662 54.314505776623264,66.68915038410341 53.69062901136931,66.19825832598144 52.20025673939381,64.64376255610841 51.09114249038976,63.86651224747766 49.91270860086661,63.37561648321571 47.97175866481848,63.08926032297313 47.34788189968094,62.8847200741875 46.06546854937915,62.352914903895 44.64441591780633,61.575659832538804 44.36713735549711,61.61656803442747 44.401797175756656,61.821108977048425 44.679075738065876,62.06655796026462 44.74839537870139,62.271098656667164 44.679075738065876,62.23019052634481 44.74839537870139,62.18928239145316 44.74839537870139,62.271098656667164 44.679075738065876,62.271098656667164" stroke="#4DD2FF" stroke-linecap="round" stroke-linejoin="round" stroke-width="0.5"><title>2025-04-26 4.0km</title><desc>14291129168</desc></polyline><polyline fill="none" points="103.61961925512878,87.0 103.71183885401115,86.61914117916604 103.74257872032467,86.03878319948853 104.00386758364039,85.53096830175491 104.06534731626743,85.2045150466729 104.00386758364039,84.46092467848212 104.03460744995391,82.5928658782068 103.98849765048362,81.75858039529703 103.97312771738507,80.59782839560648 103.9577577842283,77.71404998976504 103.98849765048362,77.06111206913192 103.9577577842283,75.50130552133487 103.88090811856091,74.88463377051812 103.98849765048362,74.50374713201018 103.4198101243237,74.0321719867352 102.4515043363208,73.48804515310621 101.60615801339736,73.01646712007641 99.14696871052729,71.80124062464165 97.67145512881689,71.00317658990389 97.17961726820795,70.64041894105321 96.5801898756763,70.13255689965445 96.1498317476362,69.67910733430472 96.0729820819688,69.57027925411239 96.02687228255672,69.42517503612908 96.10372194822412,68.82661879509396 96.10372194822412,68.30061304237461 96.02687228255672,67.95598767911724 96.01150234934175,67.6839145180711 95.98076248302823,66.75886243194691 96.01150234934175,66.25098850431095 95.98076248302823,65.65242080716416 95.96539254998788,64.07436834089458 95.93465268367436,63.457654100770014 95.98076248302823,63.221850991103565 96.22668141342001,62.423745670486824 96.27279121277388,62.35119045084866 96.42649054422509,62.206079916417366 96.64166960818693,62.18794109065493 96.84147873910842,62.22421874014253 97.25646693393355,62.405606868545874 97.36405646597268,62.423745670486824 97.41016626538476,62.36932925869769 97.45627606485505,62.24235756188864 97.44090613164008,61.86144188819162 97.45627606485505,61.73446980249719 97.51775579742389,61.625636508790194 97.67145512881689,61.48052533942973 97.9788537917193,61.353552962085814 98.53217138483888,61.262858347341535 99.20844844315434,61.28099727423978 99.33140790823381,61.208441554626916 99.39288764080266,61.063330020188005 99.3775177077041,60.64613365146215 99.1777085767826,59.14059020107379 99.07011904480169,57.56247576678288 98.99326937913429,56.96387670771219 98.97789944597753,56.383414950440056 98.85493998083984,55.42202069509949 98.77809031505603,54.13410644797841 98.82420011452632,53.970848997996654 98.97789944597753,53.8438708702306 98.96252951282077,53.771311896445695 99.05474911164492,53.89829007977096 99.13159877742874,54.07968731581059 99.13159877742874,54.22480496179196 99.05474911164492,54.33364311292826 99.07011904480169,54.38806216172816 99.16233864368405,54.424341517616995 99.46973730658647,54.424341517616995 99.57732683850918,54.38806216172816 99.65417650429299,54.31550342604169 99.7617660362157,53.89829007977096 99.70028630358865,53.372236972893006 99.7617660362157,52.537804483639775 99.73102616996039,51.8666274776042 99.77713596937247,51.721507767710136 99.86935556825483,51.63080788453226 99.96157516707899,51.503827964741504 99.91546536766691,51.104747583696735 99.94620523398044,50.74194640376663 99.90009543456836,50.56054551608395 99.73102616996039,50.30658393994963 99.66954643739155,50.17960300599225 99.63880657113623,49.998201503112796 99.63880657113623,49.780519437612384 99.66954643739155,49.56283708635601 99.73102616996039,49.417715360061266 99.80787583568599,49.2725935067574 100.0384248328628,49.018629957790836 100.13064443162875,48.83722718473291 100.16138429794228,48.71024512540316 100.06916469911812,47.512980928018806 100.08453463227488,47.27715514265583 100.17675423115725,46.69665947271278 100.13064443162875,45.971037027047714 100.17675423115725,45.372396118575125 100.16138429794228,45.29983343729691 100.1152744985302,45.245411405543564 99.8847255014116,45.17284866870614 99.77713596937247,45.11842659526155 99.71565623680362,44.99144168771454 99.70028630358865,44.79189377930015 99.68491637054831,44.13882621806988 99.79250590252923,43.30434725720261 99.91546536766691,42.79640148539329 100.1152744985302,42.30659516005835 100.08453463227488,42.19774911350396 99.86935556825483,41.88935159338871 99.83861570194131,41.74422315014817 99.85398563509807,41.56281241736724 99.93083530076547,41.34511927604035 100.0384248328628,41.19999035632645 100.17675423115725,41.07300244735961 100.49952282710001,40.87344982250943 100.76081169047393,40.528767450057785 101.37560901622055,40.2385080542299 101.85207694361452,39.966389409135445 102.05188607453601,39.78497673087986 102.34391480422346,39.44029209531436 102.95871212997008,38.932334483921295 103.06630166200921,38.82348622188147 103.1431513276766,38.587648075510515 103.15852126083337,38.351809593630605 103.1431513276766,37.843848646982224 103.03556179563748,37.44473538262537 103.03556179563748,37.190753714123275 103.11241146136308,36.90048847356229 103.35833039169665,36.39252307967399 103.5735094556585,35.77570586584625 103.74257872032467,34.70534113586473 103.74257872032467,34.48763898904144 103.68109898775583,34.37878780844039 103.11241146136308,33.74382116342895 102.20558540598722,33.19956210324017 101.91355667624157,33.054426051996415 101.72911747853504,33.0 101.42171881563263,33.0 100.99136068765074,33.16327810235089 100.43804309458937,33.32655604377214 99.74639610311715,33.45354988703912 98.59365111740772,33.48983382433653 98.17866292252438,33.52611775380501 98.11718318995554,33.48983382433653 98.14792305626906,33.47169185668463 98.10181325679878,33.43540791539999 98.1325531230541,33.45354988703912" stroke="#4DD2FF" stroke-linecap="round" stroke-linejoin="round" stroke-width="0.5"><title>2025-04-23 4.0km</title><desc>14261812071</desc></polyline><polyline fill="none" points="147.08916123956442,33.0 145.1634768145159,40.00780687149381 150.85299897985533,42.58419346268056 153.39140117680654,44.02696690225275 156.01733448402956,46.60334259568481 155.0544922715053,50.41636580193881 152.34102785401046,56.59961415239377 153.0412767357193,59.69122323906049 156.71758336620405,60.309543849143665 163.98266551597044,62.370609644276556 168.09662769688293,61.8553436146467 171.68540321663022,62.57671597821172 174.92405429575592,64.74082978238584 176.23702094890177,67.83241238130722 175.44924095692113,71.5422982237069 174.92405429575592,75.04606599744875 175.1866476261057,79.47728321043542 177.2873942721635,82.36271586857038 179.03801647666842,84.32068303995766 184.6400075322017,86.48474732530303 183.15197865804657,87.0 143.58791683008894,62.06145006016595 144.37569682253525,61.75229037529789 144.37569682253525,61.649237124598585 142.8876679483801,62.16450326592894 138.6861746571958,60.4125972451875 136.84802134195343,59.48511627945118 136.41036579059437,58.763741569186095 135.3599924677983,57.52709793421673" stroke="#4DD2FF" stroke-linecap="round" stroke-linejoin="round" stroke-width="0.5"><title>2025-03-26 1.2km</title><desc>13990302938</desc></polyline><polyline fill="none" points="49.76685629459098,147.0 48.92124103102833,145.76719239415252 48.07562576746568,144.04125632162322 47.56825660937466,142.8084409669682 47.018606687895954,141.08249404566595 46.59579905634746,140.09623582073255 46.42667600349523,139.60310593325994 46.046149134868756,138.66615772395744 45.327376160770655,137.3840150468459 45.03141081845388,136.447062420164 44.31263784435578,135.0662867289211 44.18579555512406,133.93207509507192 43.55158410733566,131.17050490612746 44.05895326542668,129.93765584056382 44.90456852898933,128.7541176994855 45.75018379255198,127.37331944025937 46.891764398431405,125.84457378511433 48.20246805716306,123.42815923519083 48.79439874156378,122.14597504847916 49.17492561019026,120.71584241153323 49.64001400512643,119.58159619563958 50.31650621606968,118.59529291640501 50.73931384785101,117.6583028867899 51.45808682194911,116.57336473235046 51.54264834825881,116.27747207426 52.13457903289236,115.19253073682194 52.557386664673686,114.15690258148243 52.81107124360278,112.67742983484641 53.02247505960986,110.5075280602614 50.65475232154131,109.37325724164839 31.501566600985825,100.39762652982608 30.40226675826125,99.46060026809573 29.34524767869152,98.91811052703997 28.71103623090312,98.52357214080985 27.73857867787592,97.53722472782829 27.569455625023693,96.64951028858195 27.527174861868843,95.8111117806111 27.400332572404295,94.77544097299688 27.569455625023693,93.98635692312382 27.442613335559145,93.78908570393105 27.358051809016615,93.34522515826393 26.97752494062297,93.04931789537659 27.10436723008752,93.0 27.231209519552067,93.09863578539807 27.527174861868843,93.39454301743535 27.569455625023693,93.73976788620348 27.73857867787592,94.18362805969082 27.73857867787592,94.33158135775011 27.527174861868843,94.33158135775011 27.654017151566222,94.43021686398424 27.654017151566222,94.28226359683322 27.569455625023693,94.28226359683322 27.611736388178542,94.33158135775011" stroke="#4DD2FF" stroke-linecap="round" stroke-linejoin="round" stroke-width="0.5"><title>2025-01-29 1.3km</title><desc>13481276884</desc></polyline><polyline fill="none" points="73.0,114.93098395931884 76.04451038572006,114.97770429210505 76.44510385766625,115.21130588301457 77.12611275957897,115.07114494315465 79.08902077167295,115.11786526135984 79.44955489621498,115.21130588301457 79.89020771533251,115.44490735142608 80.53115727007389,115.44490735142608 82.17359050456434,115.25802618643502 88.38278931751847,115.67850869733957 90.10534124611877,116.00555037640152 91.9080118695274,116.145711022662 93.02967359055765,116.3793120016635 99.67952522262931,116.84651359269628 100.92136498517357,117.03339409211185 103.92581602372229,117.12683431248297 105.52818991104141,117.45387492945883 107.2507418396417,117.36043477765634 112.05786350159906,117.68747522338526 113.70029673608951,117.96779541461729 115.30267062340863,117.9210753950174 118.02670623152517,118.1546754441224 119.46884272992611,118.43499534172588 119.7492581603583,118.34155539551284 122.8738872401882,118.62187517559505 124.35608308622614,119.46283345890697 125.31750741857104,119.7898723630642 126.39910979242995,119.93003182011307 127.0,120.30379015667131 107.69139465875924,111.5203864435316 103.80563798220828,110.02532177604735 102.92433234420605,110.07204262271989 102.84421364986338,110.16548430148396 102.80415430269204,110.35236760025145 102.84421364986338,111.56710713350913 102.7640949555207,112.40807871852303 102.84421364986338,113.10888716139016 102.68397626117803,113.80969450288103 102.84421364986338,115.07114494315465 102.92433234420605,117.9210753950174 103.0845697328914,120.02347143355291 103.0845697328914,121.09802558211959 103.00445103854872,122.1258575625252 103.1646884274669,123.10696769822971 103.36498516309075,127.03138666064478 103.76557863503695,127.03138666064478 103.92581602372229,127.12482478644233 104.08605341264047,127.40513904672116 104.32640949566849,127.5920151223836 107.1305637981277,128.15264287946047 107.17062314553186,128.24608077059384 106.97032640944235,128.5263943261234 106.93026706227101,128.85342658503214 107.2507418396417,129.74108436476672 107.41097922855988,129.97467822395265 107.2106824927032,128.7132699319336 107.33086053398438,128.75998882122803 107.41097922855988,128.90014545962913 107.29080118704587,128.90014545962913 107.41097922855988,129.08702090883162 107.33086053398438,129.36733393601025 107.29080118704587,129.3206151103659 107.2507418396417,129.1804586041253 107.29080118704587,129.08702090883162 107.57121661724523,129.08702090883162 107.69139465875924,129.1804586041253 107.61127596441656,129.08702090883162 107.65133531182073,129.4607715725724 107.73145400593057,129.55420918948948 107.45103857573122,129.1804586041253 107.33086053398438,129.13373975886498" stroke="#4DD2FF" stroke-linecap="round" stroke-linejoin="round" stroke-width="0.5"><title>2025-01-27 2.2km</title><desc>13471336632</desc></polyline><polyline fill="none" points="187.0,112.6277713215386 185.7743190662004,112.95452434069011 182.86770428030286,114.13900173924048 181.64202334638685,114.42490953777451 180.27626459149178,114.58828532838379 179.8560311284382,114.71081712652813 178.35019455256406,114.83334888608078 177.05447470827494,115.36431939926115 176.73929961095564,116.87553920951905 176.70428015559446,123.12457515156711 175.61867704277392,123.77806332160253 174.88326848263387,125.1258792130102 174.77821011666674,125.20756487490144 173.62256809335668,125.94273506148602 171.9766536966199,126.22863420413341 170.7509727627039,126.8412745182577 170.57587548648007,126.96380246561603 170.7509727627039,127.3722286784614 166.68871595337987,125.65683570920373 154.85214007773902,120.51061151834438 154.1517509727273,120.26555152918445 152.85603112832177,119.97964801386115 152.2256809337996,119.93880463743699 150.8949416342657,119.32615347739193 149.8793774319347,119.08109274375602 148.47859922179487,119.1219362099655 148.47859922179487,119.2444665831863 149.3540856031468,119.16277967198403 149.774319066084,119.2444665831863 149.774319066084,119.36699691796093 149.59922178997658,119.44868378626416 148.09338521398604,119.44868378626416 146.8326848250581,119.28531003242824 145.60700389114209,119.36699691796093 144.9766536965035,119.28531003242824 144.6614785993006,119.32615347739193 141.54474708181806,119.2444665831863 141.15953307400923,119.32615347739193 139.79377431899775,119.2444665831863 139.16342412459198,119.1219362099655 137.65758754860144,118.95856231905054 137.0972762645688,118.7543448592478 136.81712062261067,118.99940579826944 136.81712062261067,119.97964801386115 136.74708171223756,120.30639487146982 136.64202334638685,120.51061151834438 135.90661478601396,120.46976819756674 135.59143968869466,120.55145483481465 135.27626459137537,120.46976819756674 134.435797665501,121.16410406972864 134.3307392996503,121.40916349398321 134.29571984428912,122.1851839882147 134.12062256818172,123.41047636073199 134.05058365757577,123.57384838606231 133.87548638123553,123.61469138172106 134.08560311282054,123.61469138172106 134.05058365757577,123.73722034299863 133.9105058365967,123.81890629578265 133.56031128403265,123.81890629578265 133.3852140076924,124.02312110288767 133.17509727634024,124.14564993590466 133.07003891048953,124.06396405154373 133.03501945536118,123.90059223151184 133.07003891048953,124.30902165314183 133.0,124.34986457182094" stroke="#4DD2FF" stroke-linecap="round" stroke-linejoin="round" stroke-width="0.5"><title>2025-01-27 1.7km</title><desc>13471336748</desc></polyline><polyline fill="none" points="53.55384704703465,207.0 54.25947032077238,205.95891236671014 54.494678078219295,205.1260410299874 54.43587613920681,204.70960495132022 54.90629165479913,203.87673197343247 54.96509359427728,202.34979534032755 55.61191492830403,199.29591104440624 55.61191492830403,198.18540401791688 55.4355091098696,198.25481076398864 55.376707170391455,198.18540401791688 55.14149941271171,198.18540401791688 55.02389553352259,197.63014977541752 54.494678078219295,197.21370877459412 53.55384704703465,196.0337911202805 53.024629591731355,195.54794203623896 52.319006317993626,195.06209258013405 51.20176946837455,194.50683560286416 50.20213649747893,193.74335646547843 49.02609770814888,193.25750562676694 48.96729576843791,193.25750562676694 49.14370158687234,194.0903925509192 49.14370158687234,194.99268548446707 49.02609770814888,195.54794203623896 48.73208801075816,195.82557012984762 46.79162400821224,195.96438413095893 45.02756582456641,195.54794203623896 44.49834836926311,195.82557012984762 44.20433867187239,195.75616311776685 43.32230957993306,196.10319810174406 42.85189406434074,196.0337911202805 42.616686306195334,195.89497713424498 41.617053335299715,194.78446415206417 41.08783587999642,194.78446415206417 40.6174203644041,194.64564989274368 37.97133308858611,194.85387127049034 37.97133308858611,195.20090674830135 38.088936967309564,195.75616311776685 37.91253114887513,195.89497713424498 37.97133308858611,195.82557012984762 37.97133308858611,196.1726050756988 37.91253114887513,196.1726050756988 37.85372920962982,195.89497713424498 37.91253114887513,195.75616311776685 37.97133308858611,195.75616311776685 36.97170011769049,194.99268548446707 36.207274904241785,194.92327838140773 35.619255509926006,195.06209258013405 34.61962253879756,194.78446415206417 34.56082059931941,194.85387127049034 33.91399926529266,195.06209258013405 31.56192168663256,195.06209258013405 31.209110049763694,195.20090674830135 30.915100352372974,195.40912794391625 30.56228871573694,195.4785349937738 30.327080957591534,195.75616311776685 29.562655744841322,196.1726050756988 28.915834410581738,197.005488171475 28.151409197598696,197.49133613868617 27.092974287224934,197.63014977541752 26.91656846855767,197.49133613868617 26.62255877116695,195.54794203623896 26.681360710877925,194.92327838140773 27.092974287224934,194.0903925509192 28.269013076322153,192.21639543306082 28.151409197598696,191.79995087714633 28.21021113707684,191.10587600932922 28.09260725812055,190.8976534009562 28.21021113707684,190.55061556800501 27.975003379164264,189.64831631421112 27.91620143968612,188.26016110926867 27.739795621251687,187.77430606959388 27.975003379164264,187.2884506577393 27.79859756072983,186.4555547996424 28.033805318642408,186.10851453605574 28.915834410581738,186.10851453605574 28.915834410581738,186.17792260384886 28.857032471103594,185.96969837736106 28.386616955511272,185.90029028669233 28.327815015800297,185.76147408253746 28.09260725812055,185.6920659688767 27.6221917422954,185.2756171283545 27.151776226470247,184.72035158216022 26.563756831921637,184.4427186268731 25.44651998230256,183.26277721021324 25.387718042591587,182.91573519911617 24.97610446624458,182.22165060747648 24.917302526999265,181.45815667911666 24.740896708332002,181.04170505795628 24.623292829375714,180.0699835452251 24.446887011174113,179.58412223035702 24.38808507169597,178.82062512642005 24.623292829375714,178.19594499398954 24.799698647810146,176.8771738045034 25.093708345433697,176.04426427179715 25.505321921547875,175.2113536450779 25.622925800504163,174.65607928624377 26.210945195052773,173.47611965890974 26.269747134530917,173.12907229171833 26.563756831921637,172.5043865525513 27.21057816618122,171.87970019783825 27.79859756072983,171.67147127597127 27.857399500207976,170.90796464477899 28.327815015800297,169.17271888221148 28.151409197598696,168.61743923544418 28.151409197598696,168.20097918104148 28.621824713423848,166.88218720443547 28.915834410581738,165.0775200551143 28.857032471103594,163.89754260337213 29.151042168494314,163.13402661157306 29.26864604721777,162.3705097005004 29.50385380536318,161.5375811124104 29.562655744841322,161.0517055974924 29.68025962379761,160.91288395336596 30.209477078868076,160.77406227885513 31.44431780767627,160.84347312006867 32.26754496013746,160.77406227885513 33.20837599155493,160.4964188389131 33.14957405207679,160.4964188389131 33.67879150738008,160.42700795980636 33.855197325581685,160.1493643676513 34.03160314401612,159.3164328619605 34.6784244782757,159.24702185363276 35.442849691491574,159.3164328619605 37.089303996413946,159.10819981462555 37.61852145171724,159.66348778898828 37.97133308858611,159.8717206539004 38.676956361858174,159.59407681878656 39.14737187791616,159.10819981462555 40.147004848811775,159.03878878353862 40.6174203644041,158.69173351459904 40.91143006156199,158.69173351459904 40.735024243360385,158.41408916260116 40.67622230364941,158.06703355180798 40.49981648568064,157.65056656795787 40.49981648568064,157.30351053923368 40.029400969389826,156.74822049791692 39.97059903037734,155.984695897263 39.852995151421055,155.9152845243807 39.73539127223194,155.42940470122267 39.44138157507405,155.2211703771609 39.20617381716147,154.73529002204305 39.38257963536307,154.3188208498177 39.73539127223194,153.97176299762214 40.49981648568064,153.83293980325107 41.08783587999642,154.17999773175688 41.14663781947456,154.45764393778518 41.08783587999642,154.04117458319524 41.029033940518275,154.11058616137598 41.14663781947456,154.17999773175688 41.14663781947456,154.38823239767225 41.14663781947456,154.73529002204305 41.20543975895271,154.3188208498177 41.49944945657626,154.59646699525183 41.617053335299715,154.59646699525183 41.55825139582157,154.8741130186827 41.79345915373415,155.29058182612062 41.617053335299715,154.8741130186827 41.85226109344512,155.15175892069237 41.85226109344512,154.80470152420457 42.205072729615495,154.80470152420457 42.26387466932647,154.8741130186827 41.85226109344512,154.94352450565202 41.617053335299715,154.66587851243094 41.617053335299715,154.59646699525183 41.67585527477786,154.59646699525183 41.55825139582157,154.3188208498177 41.55825139582157,154.38823239767225 41.26424169843085,154.11058616137598 41.38184557715431,154.3188208498177 41.38184557715431,154.66587851243094 41.49944945657626,153.76352819486056 41.26424169843085,153.83293980325107 41.55825139582157,153.97176299762214 41.617053335299715,154.38823239767225 41.26424169843085,153.9023514042492 41.617053335299715,154.2494092945708 41.14663781947456,154.04117458319524 41.20543975895271,153.97176299762214 41.08783587999642,153.83293980325107 41.08783587999642,153.97176299762214 40.97023200127296,153.97176299762214 41.08783587999642,154.11058616137598 41.029033940518275,153.83293980325107 41.14663781947456,153.6247049550875 41.20543975895271,153.76352819486056 41.14663781947456,153.6247049550875 41.14663781947456,153.76352819486056 41.26424169843085,153.55529332376318 41.029033940518275,153.55529332376318 41.323043638141826,153.34705838433 40.85262812208384,153.34705838433 41.38184557715431,153.06941169220954 40.67622230364941,153.41647003847174 40.6174203644041,153.0 40.79382618283853,153.06941169220954 40.79382618283853,153.20823505352018 40.67622230364941,153.48588168487186 40.67622230364941,153.13882337650284 40.79382618283853,153.20823505352018 40.735024243360385,153.41647003847174 40.735024243360385,153.2776467226795" stroke="#4DD2FF" stroke-linecap="round" stroke-linejoin="round" stroke-width="0.5"><title>2025-01-19 3.6km</title><desc>13437717697</desc></polyline><polyline fill="none" points="78.92258064518683,181.38008043303853 79.8184331797529,181.7911578794592 80.36589861754328,182.14350972615648 82.10783410165459,183.72909017605707 82.00829493068159,183.67036505782744 83.30230414750986,185.02104115701513 84.29769585258327,185.72574038233142 84.79539170535281,185.90191504429094 85.19354838714935,185.7844652759959 85.59170506917872,185.3733908853028 86.38801843300462,184.31634100707015 87.08479262655601,183.31801421265118 88.97603686642833,181.43880580173573 89.17511520744301,180.85155182541348 89.12534562218934,181.38008043303853 89.92165898624808,180.4991991314455 90.76774193556048,180.85155182541348 91.3649769583717,180.38174818194238 91.46451612887904,179.6770419466775 91.3649769583717,179.6770419466775 91.3649769583717,179.79449305008166 92.06175115215592,180.7928263923386 92.80829493096098,181.02772808569716 92.85806451621465,180.6166500550462 92.11152073740959,181.61498186958488 92.16129032266326,181.67370721278712 94.00276497681625,182.2022350114421 96.6903225807473,183.14183870330453 94.60000000009313,181.7324325493537 90.12073732726276,179.20723727613222 88.03041474660859,178.09144953725627 83.40184331778437,175.9773190448177 81.06267281109467,175.21388098894386 76.78248847927898,174.8615245972178 74.04516129009426,174.97897675359854 73.54746543779038,174.80279850953957 73.14930875576101,174.6266202077968 73.0,174.3329895765055 73.0,174.15681112057064 73.29861751175486,174.09808495570906 73.79631336429156,174.15681112057064 75.18986175116152,174.9202506786678 76.78248847927898,175.27260703168577 79.56958525348455,175.1551549396827 81.56036866363138,175.5662371495855 86.6368663595058,176.1534969037748 89.92165898624808,176.27094877732452 92.31059907842427,176.1534969037748 93.75391705078073,176.32967470452422 95.8442396314349,176.91693362413207 98.28294930886477,177.03438533097506 100.77142857154831,177.504191901593 107.4405529955402,177.797820799693 112.11889400938526,177.73909503303003 114.2092165898066,177.91527231386863 116.1502304149326,177.797820799693 117.8423963135574,177.85654656001134 119.68387096794322,178.26762670261087 121.4258064518217,179.03106041875435 123.96405529975891,180.4991991314455 125.85529953916557,181.8498832032783 126.00460829492658,181.67370721278712 126.1539170506876,180.38174818194238 126.35299539170228,179.79449305008166 126.60184331820346,179.5008652434335 127.0,179.61831638519652" stroke="#4DD2FF" stroke-linecap="round" stroke-linejoin="round" stroke-width="0.5"><title>2025-01-17 2.0km</title><desc>13437717788</desc></polyline><polyline fill="none" points="187.0,155.57744628662476 181.7978290366009,155.23162931058323 179.01356852101162,155.40453781746328 176.37584803253412,155.9232631115592 174.8371777473949,156.61489630758297 173.37177747581154,157.47943695209688 170.66078697424382,158.17106878769118 167.58344640443102,158.43043056991883 163.70013568503782,158.34397665184224 161.9416553596966,160.0730532159796 161.79511533211917,162.7531144201057 161.72184531856328,163.70410169666866 161.2089552236721,165.17380705691176 160.84260515589267,167.24868056288688 159.59701492497697,168.19966243417002 157.39891451830044,167.85385097691324 158.05834463983774,167.85385097691324 160.18317503342405,168.6319265430211 160.18317503342405,168.80483212071704 160.6960651287809,170.96614864928415 161.06241519656032,174.3377906406531 162.0881953863427,177.2771591116907 162.30800542701036,183.41521687392378 164.0664857532829,184.45263038150733 167.14382632263005,184.27972822496668 169.41519674332812,185.57649347925326 169.34192672977224,190.93643397814594 169.70827679755166,194.22154084785143 170.2211668929085,200.2730177884223 170.14789687888697,203.1258408605936 171.32021709624678,203.90388173074462 171.90637720469385,204.59547297324752 171.39348710980266,204.76837068941677 170.8073270013556,204.68192183587234 168.1696065128781,204.16322851763107 164.7259158748202,203.1258408605936 159.8900949792005,201.39685840869788 152.8561736769043,198.54402910091449 150.43826322909445,197.33373477112036 148.24016282241791,195.86408916657092 146.18860244192183,194.82669062516652 143.11126187210903,193.6163906075526 139.74084124807268,192.57898911851225 136.29715061048046,191.8873873698758 134.53867028467357,191.8873873698758 133.65943012200296,192.06028786377283 133.219810040202,192.31963853380876 133.0,192.66543929453474 133.0,193.35704036295647 133.219810040202,194.82669062516652" stroke="#4DD2FF" stroke-linecap="round" stroke-linejoin="round" stroke-width="0.5"><title>2025-01-08 1.4km</title><desc>13437717780</desc></polyline><polyline fill="none" points="43.836913026170805,213.0 44.33377946144901,214.0422658487223 44.3889868427068,214.6285395878367 44.223364698002115,215.0193884265609 43.61608349950984,215.54051981295925 43.39525397284888,215.99650940211723 43.22963182791136,217.03877001011278 43.28483920963481,218.08102879521903 44.223364698002115,220.94723105517915 44.554608988109976,224.399683656462 45.43792709475383,228.76407624635613 45.990000911289826,230.91369069943903 47.42539283493534,235.21289634500863 48.08788141491823,237.55790453474037 48.41912570502609,239.31665462162346 48.584747850196436,241.53136957075913 49.026406903518364,245.76536053820746 49.41285857511684,248.04518936981913 50.18576191854663,250.1295966701 50.73783573531546,252.34427143947687 51.510739078512415,256.5130486814887 52.00760551379062,259.8350221712608 53.16696052881889,264.45969953376334 54.27110816212371,267.0 54.16069339867681,267.0 51.23470217036083,266.15323438087944 43.72649826272391,262.70102363819024 39.97239630925469,261.20288822677685 38.42658962216228,260.6817967663519 36.65995340887457,260.2909778719768 35.99746482865885,260.35611437202897 35.11414672201499,260.55152382986853 33.12668098183349,261.26802462741034 32.519399783574045,261.26802462741034 31.63608167669736,261.0074789823848 30.200689753284678,260.2909778719768 28.599675684934482,259.1185196512379 27.16428376128897,257.6203752353322 25.72889183787629,255.73140516970307 26.004928746027872,256.12222705379827" stroke="#4DD2FF" stroke-linecap="round" stroke-linejoin="round" stroke-width="0.5"><title>2025-01-07 1.0km</title><desc>13437717841</desc></polyline></svg>